%FSLAX34Y34*%
%MOMM*%
%LNSOLDERMASK_TOP*%
G71*
G01*
%ADD10C, 3.100*%
%ADD11C, 2.400*%
%ADD12C, 2.200*%
%ADD13C, 2.800*%
%ADD14C, 2.900*%
%ADD15C, 2.600*%
%ADD16C, 2.400*%
%ADD17C, 2.400*%
%ADD18C, 0.400*%
%LPD*%
G36*
X900025Y133025D02*
X900025Y164025D01*
X931025Y164025D01*
X931025Y133025D01*
X900025Y133025D01*
G37*
X915525Y198525D02*
G54D10*
D03*
G36*
X900025Y314000D02*
X900025Y345000D01*
X931025Y345000D01*
X931025Y314000D01*
X900025Y314000D01*
G37*
X915525Y379500D02*
G54D10*
D03*
X915525Y429500D02*
G54D10*
D03*
G36*
X660825Y358775D02*
X636825Y358775D01*
X636825Y382775D01*
X660825Y382775D01*
X660825Y358775D01*
G37*
X623425Y370775D02*
G54D11*
D03*
X648825Y396175D02*
G54D11*
D03*
X623425Y396175D02*
G54D11*
D03*
X648825Y421575D02*
G54D11*
D03*
X623425Y421575D02*
G54D11*
D03*
G36*
X714025Y235725D02*
X736025Y235725D01*
X736025Y213725D01*
X714025Y213725D01*
X714025Y235725D01*
G37*
X801225Y224725D02*
G54D12*
D03*
X159875Y192975D02*
G54D13*
D03*
X159875Y186625D02*
G54D13*
D03*
X159875Y196150D02*
G54D13*
D03*
X159875Y183450D02*
G54D13*
D03*
X159875Y199325D02*
G54D13*
D03*
X159875Y180275D02*
G54D13*
D03*
X159875Y197737D02*
G54D13*
D03*
X159875Y194562D02*
G54D13*
D03*
X159875Y181862D02*
G54D13*
D03*
X159875Y191387D02*
G54D13*
D03*
X159875Y188212D02*
G54D13*
D03*
X159875Y185037D02*
G54D13*
D03*
X99550Y192975D02*
G54D13*
D03*
X99550Y186625D02*
G54D13*
D03*
X99550Y196150D02*
G54D13*
D03*
X99550Y183450D02*
G54D13*
D03*
X99550Y199325D02*
G54D13*
D03*
X99550Y180275D02*
G54D13*
D03*
X99550Y197737D02*
G54D13*
D03*
X99550Y194562D02*
G54D13*
D03*
X99550Y181862D02*
G54D13*
D03*
X99550Y191387D02*
G54D13*
D03*
X99550Y188212D02*
G54D13*
D03*
X99550Y185037D02*
G54D13*
D03*
X131300Y142175D02*
G54D13*
D03*
X124950Y142175D02*
G54D13*
D03*
X134475Y142175D02*
G54D13*
D03*
X121775Y142175D02*
G54D13*
D03*
X137650Y142175D02*
G54D13*
D03*
X118600Y142175D02*
G54D13*
D03*
X136062Y142175D02*
G54D13*
D03*
X132887Y142175D02*
G54D13*
D03*
X120187Y142175D02*
G54D13*
D03*
X129712Y142175D02*
G54D13*
D03*
X126537Y142175D02*
G54D13*
D03*
X123362Y142175D02*
G54D13*
D03*
G54D14*
X159875Y201300D02*
X159875Y178300D01*
G54D14*
X99550Y201300D02*
X99550Y178300D01*
G54D14*
X139625Y142175D02*
X116625Y142175D01*
G36*
X661825Y259950D02*
X661825Y233950D01*
X635825Y233950D01*
X635825Y259950D01*
X661825Y259950D01*
G37*
X648825Y221550D02*
G54D15*
D03*
X648825Y196150D02*
G54D15*
D03*
X648825Y170750D02*
G54D15*
D03*
G36*
X343725Y132350D02*
X343725Y158350D01*
X369725Y158350D01*
X369725Y132350D01*
X343725Y132350D01*
G37*
X356725Y170750D02*
G54D15*
D03*
X356725Y196150D02*
G54D15*
D03*
X356725Y221550D02*
G54D15*
D03*
X328150Y361250D02*
G54D16*
D03*
X353550Y361250D02*
G54D16*
D03*
X378950Y361250D02*
G54D16*
D03*
X404350Y361250D02*
G54D16*
D03*
X429750Y361250D02*
G54D16*
D03*
X455150Y361250D02*
G54D16*
D03*
X480550Y361250D02*
G54D16*
D03*
X505950Y361250D02*
G54D16*
D03*
X531350Y361250D02*
G54D16*
D03*
G36*
X544750Y373250D02*
X568750Y373250D01*
X568750Y349250D01*
X544750Y349250D01*
X544750Y373250D01*
G37*
X661525Y488250D02*
G54D17*
D03*
X636125Y488250D02*
G54D17*
D03*
X610725Y488250D02*
G54D17*
D03*
G54D18*
G75*
G01X55002Y511048D02*
G03X99798Y511048I22398J-22398D01*
G01*
G36*
G75*
G01X55002Y511048D02*
G03X99798Y511048I22398J-22398D01*
G01*
G37*
X55002Y511048D01*
G54D18*
G75*
G01X255002Y511048D02*
G03X299798Y511048I22398J-22398D01*
G01*
G36*
G75*
G01X255002Y511048D02*
G03X299798Y511048I22398J-22398D01*
G01*
G37*
X255002Y511048D01*
G54D18*
G75*
G01X695002Y511048D02*
G03X739798Y511048I22398J-22398D01*
G01*
G36*
G75*
G01X695002Y511048D02*
G03X739798Y511048I22398J-22398D01*
G01*
G37*
X695002Y511048D01*
G54D18*
G75*
G01X739798Y66252D02*
G03X695002Y66252I-22398J22398D01*
G01*
G36*
G75*
G01X739798Y66252D02*
G03X695002Y66252I-22398J22398D01*
G01*
G37*
X739798Y66252D01*
G54D18*
G75*
G01X299798Y66252D02*
G03X255002Y66252I-22398J22398D01*
G01*
G36*
G75*
G01X299798Y66252D02*
G03X255002Y66252I-22398J22398D01*
G01*
G37*
X299798Y66252D01*
G54D18*
G75*
G01X99798Y66252D02*
G03X55002Y66252I-22398J22398D01*
G01*
G36*
G75*
G01X99798Y66252D02*
G03X55002Y66252I-22398J22398D01*
G01*
G37*
X99798Y66252D01*
M02*
