; Drill file
; Format: 3.3 (000.000)
M48
METRIC
T01C0.5
T02C0.6
T03C0.7
T04C0.8
T05C1.0
T06C3.2
%
G05
G90
T01
X032820Y027870
X040120Y030410
X045520Y032320
X045520Y034220
X051550Y030410
X050600Y025960
X053450Y014850
X058220Y011040
X064560Y011040
X072500Y027870
X076000Y029140
X064880Y030410
X064880Y032320
X064880Y034220
X059800Y035810
X059800Y038660
X089330Y025960
X044240Y010090
T02
X011860Y014220
X012020Y014220
X012180Y014220
X012340Y014220
X012500Y014220
X012650Y014220
X012810Y014220
X012970Y014220
X013130Y014220
X013290Y014220
X013450Y014220
X013610Y014220
X013760Y014220
X015990Y018030
X015990Y018190
X015990Y018340
X015990Y018500
X015990Y018660
X015990Y018820
X015990Y018980
X015990Y019140
X015990Y019300
X015990Y019460
X015990Y019620
X015990Y019770
X015990Y019930
X009960Y019930
X009960Y019770
X009960Y019620
X009960Y019460
X009960Y019300
X009960Y019140
X009960Y018980
X009960Y018820
X009960Y018660
X009960Y018500
X009960Y018340
X009960Y018190
X009960Y018030
X025510Y040250
X025510Y042480
X050600Y042480
X061070Y048820
X063610Y048820
X066150Y048820
X069960Y040890
X069960Y033270
X080120Y033270
X082660Y033270
X082660Y040890
X080120Y040890
X080120Y022470
X072500Y022470
X057900Y024770
X057900Y019930
T03
X026780Y026920
T04
X020750Y017710
X020750Y020210
X026780Y032000
X032820Y036120
X035360Y036120
X037900Y036120
X040440Y036120
X042980Y036120
X045520Y036120
X048060Y036120
X050600Y036120
X053140Y036120
X055680Y036120
X064880Y024700
X064880Y022160
X064880Y019620
X064880Y017080
X035670Y017080
X035670Y014540
X035670Y019620
X035670Y022160
T05
X062340Y037080
X062340Y039620
X062340Y042160
X064880Y042160
X064880Y039620
X064880Y037080
X091550Y037950
X091550Y042950
X091550Y032950
X091550Y019850
X091550Y014850
T06
X007740Y008860
X027740Y008860
X027740Y048860
X007740Y048860
X071740Y048860
X071740Y008860
M30
