%FSLAX34Y34*%
%MOMM*%
%LNCOPPER_TOP*%
G71*
G01*
%ADD10C, 2.500*%
%ADD11C, 1.800*%
%ADD12C, 1.600*%
%ADD13C, 2.200*%
%ADD14C, 2.300*%
%ADD15C, 2.000*%
%ADD16C, 1.800*%
%ADD17C, 1.800*%
%ADD18C, 1.000*%
%ADD19C, 0.400*%
%ADD20C, 0.200*%
%ADD21C, 0.600*%
%LPD*%
G36*
X903025Y136025D02*
X903025Y161025D01*
X928025Y161025D01*
X928025Y136025D01*
X903025Y136025D01*
G37*
X915525Y198525D02*
G54D10*
D03*
G36*
X903025Y317000D02*
X903025Y342000D01*
X928025Y342000D01*
X928025Y317000D01*
X903025Y317000D01*
G37*
X915525Y379500D02*
G54D10*
D03*
X915525Y429500D02*
G54D10*
D03*
G36*
X657825Y361775D02*
X639825Y361775D01*
X639825Y379775D01*
X657825Y379775D01*
X657825Y361775D01*
G37*
X623425Y370775D02*
G54D11*
D03*
X648825Y396175D02*
G54D11*
D03*
X623425Y396175D02*
G54D11*
D03*
X648825Y421575D02*
G54D11*
D03*
X623425Y421575D02*
G54D11*
D03*
G36*
X717025Y232725D02*
X733025Y232725D01*
X733025Y216725D01*
X717025Y216725D01*
X717025Y232725D01*
G37*
X801225Y224725D02*
G54D12*
D03*
X159875Y192975D02*
G54D13*
D03*
X159875Y186625D02*
G54D13*
D03*
X159875Y196150D02*
G54D13*
D03*
X159875Y183450D02*
G54D13*
D03*
X159875Y199325D02*
G54D13*
D03*
X159875Y180275D02*
G54D13*
D03*
X159875Y197737D02*
G54D13*
D03*
X159875Y194562D02*
G54D13*
D03*
X159875Y181862D02*
G54D13*
D03*
X159875Y191387D02*
G54D13*
D03*
X159875Y188212D02*
G54D13*
D03*
X159875Y185037D02*
G54D13*
D03*
X99550Y192975D02*
G54D13*
D03*
X99550Y186625D02*
G54D13*
D03*
X99550Y196150D02*
G54D13*
D03*
X99550Y183450D02*
G54D13*
D03*
X99550Y199325D02*
G54D13*
D03*
X99550Y180275D02*
G54D13*
D03*
X99550Y197737D02*
G54D13*
D03*
X99550Y194562D02*
G54D13*
D03*
X99550Y181862D02*
G54D13*
D03*
X99550Y191387D02*
G54D13*
D03*
X99550Y188212D02*
G54D13*
D03*
X99550Y185037D02*
G54D13*
D03*
X131300Y142175D02*
G54D13*
D03*
X124950Y142175D02*
G54D13*
D03*
X134475Y142175D02*
G54D13*
D03*
X121775Y142175D02*
G54D13*
D03*
X137650Y142175D02*
G54D13*
D03*
X118600Y142175D02*
G54D13*
D03*
X136062Y142175D02*
G54D13*
D03*
X132887Y142175D02*
G54D13*
D03*
X120187Y142175D02*
G54D13*
D03*
X129712Y142175D02*
G54D13*
D03*
X126537Y142175D02*
G54D13*
D03*
X123362Y142175D02*
G54D13*
D03*
G54D14*
X159875Y201300D02*
X159875Y178300D01*
G54D14*
X99550Y201300D02*
X99550Y178300D01*
G54D14*
X139625Y142175D02*
X116625Y142175D01*
G36*
X658825Y256950D02*
X658825Y236950D01*
X638825Y236950D01*
X638825Y256950D01*
X658825Y256950D01*
G37*
X648825Y221550D02*
G54D15*
D03*
X648825Y196150D02*
G54D15*
D03*
X648825Y170750D02*
G54D15*
D03*
G36*
X346725Y135350D02*
X346725Y155350D01*
X366725Y155350D01*
X366725Y135350D01*
X346725Y135350D01*
G37*
X356725Y170750D02*
G54D15*
D03*
X356725Y196150D02*
G54D15*
D03*
X356725Y221550D02*
G54D15*
D03*
X328150Y361250D02*
G54D16*
D03*
X353550Y361250D02*
G54D16*
D03*
X378950Y361250D02*
G54D16*
D03*
X404350Y361250D02*
G54D16*
D03*
X429750Y361250D02*
G54D16*
D03*
X455150Y361250D02*
G54D16*
D03*
X480550Y361250D02*
G54D16*
D03*
X505950Y361250D02*
G54D16*
D03*
X531350Y361250D02*
G54D16*
D03*
G36*
X547750Y370250D02*
X565750Y370250D01*
X565750Y352250D01*
X547750Y352250D01*
X547750Y370250D01*
G37*
X661525Y488250D02*
G54D17*
D03*
X636125Y488250D02*
G54D17*
D03*
X610725Y488250D02*
G54D17*
D03*
X401175Y304100D02*
G54D18*
D03*
G54D19*
G75*
G01X80975Y488650D02*
G03X80975Y488650I-3575J0D01*
G01*
G54D20*
G75*
G01X55002Y511048D02*
G03X99798Y511048I22398J-22398D01*
G01*
G36*
G75*
G01X55002Y511048D02*
G03X99798Y511048I22398J-22398D01*
G01*
G37*
X55002Y511048D01*
G54D20*
G75*
G01X255002Y511048D02*
G03X299798Y511048I22398J-22398D01*
G01*
G36*
G75*
G01X255002Y511048D02*
G03X299798Y511048I22398J-22398D01*
G01*
G37*
X255002Y511048D01*
G54D20*
G75*
G01X695002Y511048D02*
G03X739798Y511048I22398J-22398D01*
G01*
G36*
G75*
G01X695002Y511048D02*
G03X739798Y511048I22398J-22398D01*
G01*
G37*
X695002Y511048D01*
G54D20*
G75*
G01X739798Y66252D02*
G03X695002Y66252I-22398J22398D01*
G01*
G36*
G75*
G01X739798Y66252D02*
G03X695002Y66252I-22398J22398D01*
G01*
G37*
X739798Y66252D01*
G54D20*
G75*
G01X299798Y66252D02*
G03X255002Y66252I-22398J22398D01*
G01*
G36*
G75*
G01X299798Y66252D02*
G03X255002Y66252I-22398J22398D01*
G01*
G37*
X299798Y66252D01*
G54D20*
G75*
G01X99798Y66252D02*
G03X55002Y66252I-22398J22398D01*
G01*
G36*
G75*
G01X99798Y66252D02*
G03X55002Y66252I-22398J22398D01*
G01*
G37*
X99798Y66252D01*
X515475Y304100D02*
G54D18*
D03*
X598025Y358075D02*
G54D18*
D03*
X598025Y386650D02*
G54D18*
D03*
G54D19*
X598025Y358075D02*
X598025Y386650D01*
G54D21*
X505950Y361250D02*
X505950Y310450D01*
X515475Y300925D01*
G54D19*
X648825Y342200D02*
X534525Y342200D01*
X528175Y335850D01*
X528175Y297750D01*
X521825Y291400D01*
X496425Y291400D01*
X490075Y297750D01*
X490075Y335850D01*
X483725Y342200D01*
X455150Y342200D01*
G54D19*
X455150Y323150D02*
X477375Y323150D01*
X483725Y316800D01*
X483725Y294575D01*
X493250Y285050D01*
X525000Y285050D01*
X534525Y294575D01*
X534525Y316800D01*
X540875Y323150D01*
X648825Y323150D01*
G54D19*
X401175Y304100D02*
X471025Y304100D01*
X477375Y297750D01*
X477375Y291400D01*
X490075Y278700D01*
X528175Y278700D01*
X540875Y291400D01*
X540875Y297750D01*
X547225Y304100D01*
X648825Y304100D01*
X455150Y323150D02*
G54D18*
D03*
X455150Y342200D02*
G54D18*
D03*
X648825Y342200D02*
G54D18*
D03*
X648825Y323150D02*
G54D18*
D03*
X648825Y304100D02*
G54D18*
D03*
G54D19*
X328150Y278700D02*
X480550Y278700D01*
X486900Y272350D01*
X531350Y272350D01*
X537700Y278700D01*
X725025Y278700D01*
X328150Y278700D02*
G54D18*
D03*
X725025Y278700D02*
G54D18*
D03*
X505950Y259650D02*
G54D18*
D03*
X534525Y148525D02*
G54D18*
D03*
G54D21*
X534525Y148525D02*
X639300Y148525D01*
X648825Y158050D01*
X645650Y110425D02*
G54D18*
D03*
X442450Y100900D02*
G54D18*
D03*
G54D19*
X645650Y110425D02*
X451975Y110425D01*
X442450Y100900D01*
G54D21*
X505950Y221550D02*
X505950Y148525D01*
X534525Y148525D01*
X505950Y424750D02*
G54D12*
D03*
G54D21*
X505950Y361250D02*
X505950Y424750D01*
G54D19*
X531350Y361250D02*
X531350Y459675D01*
X544050Y472375D01*
X620250Y472375D01*
X636125Y488250D01*
X582150Y110425D02*
G54D18*
D03*
X759950Y291400D02*
G54D18*
D03*
X893300Y259650D02*
G54D18*
D03*
G54D19*
X759950Y291400D02*
X759950Y266000D01*
X766300Y259650D01*
X893300Y259650D01*
G54D21*
X505950Y259650D02*
X505950Y221550D01*
G54D21*
X505950Y148525D02*
X385300Y148525D01*
X378950Y154875D01*
X378950Y215200D01*
X372600Y221550D01*
X356725Y221550D01*
G54D21*
X648825Y158050D02*
X648825Y170750D01*
M02*
