%FSLAX34Y34*%
%MOMM*%
%LNSILK_BOTTOM*%
G71*
G01*
%ADD10C, 0.150*%
%ADD11C, 0.159*%
%ADD12C, 0.200*%
%ADD13C, 0.100*%
%LPD*%
G54D10*
X259888Y234250D02*
X259888Y153288D01*
X231312Y153288D01*
X231312Y234250D01*
X259888Y234250D01*
G36*
X259888Y234250D02*
X231312Y234250D01*
X231312Y227900D01*
X259888Y227900D01*
X259888Y234250D01*
G37*
G54D10*
X259888Y234250D02*
X231312Y234250D01*
X231312Y227900D01*
X259888Y227900D01*
X259888Y234250D01*
G54D11*
X254325Y258875D02*
X252102Y249986D01*
X249880Y258875D01*
G54D11*
X246770Y249986D02*
X246770Y258875D01*
X244548Y258875D01*
X243659Y258319D01*
X243214Y257208D01*
X243214Y251652D01*
X243659Y250541D01*
X244548Y249986D01*
X246770Y249986D01*
G54D11*
X240103Y255541D02*
X237880Y258875D01*
X237880Y249986D01*
G54D11*
X254700Y239746D02*
X254255Y238635D01*
X253366Y238079D01*
X252477Y238079D01*
X251588Y238635D01*
X251144Y239746D01*
X251144Y240857D01*
X251588Y241968D01*
X252477Y242524D01*
X253366Y242524D01*
X254255Y243079D01*
X254700Y244190D01*
X254700Y245301D01*
X254255Y246413D01*
X253366Y246968D01*
X252477Y246968D01*
X251588Y246413D01*
X251144Y245301D01*
G54D11*
X248033Y239746D02*
X247588Y238635D01*
X246699Y238079D01*
X245810Y238079D01*
X244922Y238635D01*
X244477Y239746D01*
X244477Y240857D01*
X244922Y241968D01*
X245810Y242524D01*
X246699Y242524D01*
X247588Y243079D01*
X248033Y244190D01*
X248033Y245301D01*
X247588Y246413D01*
X246699Y246968D01*
X245810Y246968D01*
X244922Y246413D01*
X244477Y245301D01*
G54D11*
X241366Y243635D02*
X239143Y246968D01*
X239143Y238079D01*
G54D11*
X232477Y238079D02*
X236033Y238079D01*
X236033Y238635D01*
X235588Y239746D01*
X232922Y243079D01*
X232477Y244190D01*
X232477Y245301D01*
X232922Y246413D01*
X233810Y246968D01*
X234699Y246968D01*
X235588Y246413D01*
X236033Y245301D01*
G54D12*
X50338Y296163D02*
X50338Y381888D01*
X184481Y381888D01*
X184481Y296162D01*
X50338Y296163D01*
G54D11*
X235450Y342504D02*
X235450Y351392D01*
X233227Y351392D01*
X232338Y350837D01*
X231894Y349726D01*
X231894Y344170D01*
X232338Y343059D01*
X233227Y342504D01*
X235450Y342504D01*
G54D11*
X228782Y342504D02*
X226560Y351392D01*
X224338Y342504D01*
G54D11*
X227894Y345837D02*
X225227Y345837D01*
G54D11*
X221228Y348059D02*
X219005Y351392D01*
X219005Y342504D01*
G54D11*
X235462Y336530D02*
X235462Y327641D01*
X232350Y327641D01*
G54D11*
X229240Y327641D02*
X229240Y336530D01*
X227017Y330974D01*
X224795Y336530D01*
X224795Y327641D01*
G54D11*
X221685Y336530D02*
X218129Y336530D01*
X218574Y335419D01*
X219462Y333752D01*
X220351Y331530D01*
X220796Y329863D01*
X220796Y327641D01*
G54D11*
X212795Y332085D02*
X213684Y332085D01*
X214573Y332641D01*
X215018Y333752D01*
X215018Y334863D01*
X214573Y335974D01*
X213684Y336530D01*
X212795Y336530D01*
X211906Y335974D01*
X211462Y334863D01*
X211462Y333752D01*
X211906Y332641D01*
X212795Y332085D01*
X211906Y331530D01*
X211462Y330419D01*
X211462Y329308D01*
X211906Y328197D01*
X212795Y327641D01*
X213684Y327641D01*
X214573Y328197D01*
X215018Y329308D01*
X215018Y330419D01*
X214573Y331530D01*
X213684Y332085D01*
G54D11*
X208351Y327641D02*
X208351Y336530D01*
X206128Y330974D01*
X203906Y336530D01*
X203906Y327641D01*
G54D11*
X197240Y334863D02*
X197240Y329308D01*
X197684Y328197D01*
X198573Y327641D01*
X199462Y327641D01*
X200351Y328197D01*
X200796Y329308D01*
X200796Y334863D01*
X200351Y335974D01*
X199462Y336530D01*
X198573Y336530D01*
X197684Y335974D01*
X197240Y334863D01*
G54D11*
X190573Y336530D02*
X194129Y336530D01*
X194129Y332641D01*
X193684Y332641D01*
X192795Y333197D01*
X191906Y333197D01*
X191018Y332641D01*
X190573Y331530D01*
X190573Y329308D01*
X191018Y328197D01*
X191906Y327641D01*
X192795Y327641D01*
X193684Y328197D01*
X194129Y329308D01*
G54D10*
X115288Y285850D02*
X115419Y265069D01*
X130500Y265069D01*
G54D10*
X130506Y285844D02*
X115288Y285850D01*
G54D10*
X155150Y285844D02*
X155018Y265062D01*
X139937Y265062D01*
G54D10*
X139931Y285838D02*
X155150Y285844D01*
G54D11*
X168178Y279308D02*
X168622Y278197D01*
X169511Y277641D01*
X170400Y277641D01*
X171289Y278197D01*
X171733Y279308D01*
X171733Y284864D01*
X171289Y285975D01*
X170400Y286530D01*
X169511Y286530D01*
X168622Y285975D01*
X168178Y284864D01*
G54D11*
X162400Y277641D02*
X162400Y286530D01*
X165066Y280975D01*
X165066Y279864D01*
X161511Y279864D01*
G54D11*
X168373Y272886D02*
X168373Y267330D01*
X168818Y266219D01*
X169706Y265663D01*
X170595Y265663D01*
X171484Y266219D01*
X171929Y267330D01*
X171929Y272886D01*
X171484Y273997D01*
X170595Y274552D01*
X169706Y274552D01*
X168818Y273997D01*
X168373Y272886D01*
G54D11*
X164906Y265663D02*
X165262Y265663D01*
X165262Y266108D01*
X164906Y266108D01*
X164906Y265663D01*
X165262Y265663D01*
G54D11*
X161795Y271219D02*
X159572Y274552D01*
X159572Y265663D01*
G54D10*
X115288Y412850D02*
X115419Y392069D01*
X130500Y392069D01*
G54D10*
X130506Y412844D02*
X115288Y412850D01*
G54D10*
X155150Y412844D02*
X155018Y392062D01*
X139937Y392062D01*
G54D10*
X139931Y412838D02*
X155150Y412844D01*
G54D11*
X168326Y405683D02*
X168771Y404572D01*
X169660Y404016D01*
X170549Y404016D01*
X171438Y404572D01*
X171882Y405683D01*
X171882Y411239D01*
X171438Y412350D01*
X170549Y412905D01*
X169660Y412905D01*
X168771Y412350D01*
X168326Y411239D01*
G54D11*
X165215Y412905D02*
X161660Y412905D01*
X162104Y411794D01*
X162993Y410128D01*
X163882Y407905D01*
X164326Y406239D01*
X164326Y404016D01*
G54D11*
X168336Y399886D02*
X168336Y394331D01*
X168780Y393220D01*
X169669Y392664D01*
X170558Y392664D01*
X171447Y393220D01*
X171892Y394331D01*
X171892Y399886D01*
X171447Y400997D01*
X170558Y401553D01*
X169669Y401553D01*
X168780Y400997D01*
X168336Y399886D01*
G54D11*
X164869Y392664D02*
X165224Y392664D01*
X165224Y393108D01*
X164869Y393108D01*
X164869Y392664D01*
X165224Y392664D01*
G54D11*
X161758Y398220D02*
X159535Y401553D01*
X159535Y392664D01*
G54D10*
X528206Y331625D02*
X528206Y346725D01*
X550444Y346725D01*
X550444Y331625D01*
X528206Y331625D01*
G36*
X528206Y331625D02*
X528206Y346725D01*
X535306Y346725D01*
X535306Y331625D01*
X528206Y331625D01*
G37*
G54D13*
X528206Y331625D02*
X528206Y346725D01*
X535306Y346725D01*
X535306Y331625D01*
X528206Y331625D01*
G54D11*
X477476Y428985D02*
X475254Y420096D01*
X473032Y428985D01*
G54D11*
X469922Y420096D02*
X469922Y428985D01*
X467699Y428985D01*
X466810Y428430D01*
X466366Y427319D01*
X466366Y421763D01*
X466810Y420652D01*
X467699Y420096D01*
X469922Y420096D01*
G54D11*
X459699Y420096D02*
X463254Y420096D01*
X463254Y420652D01*
X462810Y421763D01*
X460143Y425096D01*
X459699Y426208D01*
X459699Y427319D01*
X460143Y428430D01*
X461032Y428985D01*
X461921Y428985D01*
X462810Y428430D01*
X463254Y427319D01*
G54D11*
X477406Y413665D02*
X475184Y416998D01*
X475184Y408109D01*
G54D11*
X472074Y408109D02*
X472074Y416998D01*
X468518Y408109D01*
X468518Y416998D01*
G54D11*
X462740Y408109D02*
X462740Y416998D01*
X465406Y411442D01*
X465406Y410331D01*
X461851Y410331D01*
G54D11*
X458740Y413665D02*
X456517Y416998D01*
X456517Y408109D01*
G54D11*
X450740Y408109D02*
X450740Y416998D01*
X453406Y411442D01*
X453406Y410331D01*
X449851Y410331D01*
G54D11*
X444517Y412553D02*
X445406Y412553D01*
X446295Y413109D01*
X446740Y414220D01*
X446740Y415331D01*
X446295Y416442D01*
X445406Y416998D01*
X444517Y416998D01*
X443628Y416442D01*
X443184Y415331D01*
X443184Y414220D01*
X443628Y413109D01*
X444517Y412553D01*
X443628Y411998D01*
X443184Y410887D01*
X443184Y409776D01*
X443628Y408665D01*
X444517Y408109D01*
X445406Y408109D01*
X446295Y408665D01*
X446740Y409776D01*
X446740Y410887D01*
X446295Y411998D01*
X445406Y412553D01*
G54D11*
X440072Y416998D02*
X440072Y408109D01*
X437850Y413665D01*
X435628Y408109D01*
X435628Y416998D01*
G54D12*
X518450Y295225D02*
X458450Y295225D01*
X458450Y160575D01*
X518450Y160575D01*
X518450Y295225D01*
G54D12*
X513450Y295225D02*
X463450Y295225D01*
X463450Y290225D01*
X513450Y290225D01*
X513450Y295225D01*
G54D12*
X518450Y292050D02*
X550400Y292194D01*
X550400Y163606D01*
X518450Y163750D01*
G54D12*
X458325Y292194D02*
X425781Y292194D01*
X425781Y163606D01*
X458325Y163606D01*
G54D11*
X415145Y263461D02*
X415145Y272350D01*
X412923Y272350D01*
X412034Y271794D01*
X411590Y270683D01*
X411590Y265128D01*
X412034Y264017D01*
X412923Y263461D01*
X415145Y263461D01*
G54D11*
X408478Y263461D02*
X408478Y272350D01*
X406256Y272350D01*
X405367Y271794D01*
X404922Y270683D01*
X404922Y265128D01*
X405367Y264017D01*
X406256Y263461D01*
X408478Y263461D01*
G54D11*
X401811Y269017D02*
X399589Y272350D01*
X399589Y263461D01*
G54D11*
X415712Y250550D02*
X413490Y259439D01*
X411268Y250550D01*
G54D11*
X414824Y253884D02*
X412157Y253884D01*
G54D11*
X406380Y250550D02*
X406380Y259439D01*
G54D11*
X408158Y259439D02*
X404602Y259439D01*
G54D11*
X400602Y259439D02*
X400602Y251106D01*
X400157Y250550D01*
X399713Y250773D01*
G54D11*
X401490Y255550D02*
X399713Y255550D01*
G54D11*
X396602Y250550D02*
X396602Y255550D01*
G54D11*
X396602Y257217D02*
X396602Y257217D01*
G54D11*
X393490Y250550D02*
X393490Y255550D01*
G54D11*
X393490Y254439D02*
X393046Y255217D01*
X392157Y255550D01*
X391268Y255217D01*
X390824Y254439D01*
X390824Y250550D01*
G54D11*
X387712Y255550D02*
X385935Y250550D01*
X384157Y255550D01*
G54D11*
X385935Y250550D02*
X386379Y248884D01*
X386824Y248328D01*
X387268Y248328D01*
G54D11*
X377490Y250550D02*
X381046Y250550D01*
X381046Y251106D01*
X380601Y252217D01*
X377934Y255550D01*
X377490Y256662D01*
X377490Y257773D01*
X377934Y258884D01*
X378823Y259439D01*
X379712Y259439D01*
X380601Y258884D01*
X381046Y257773D01*
G54D11*
X374378Y257773D02*
X373934Y258884D01*
X373045Y259439D01*
X372156Y259439D01*
X371267Y258884D01*
X370823Y257773D01*
X370823Y256662D01*
X371267Y255550D01*
X372156Y254995D01*
X371267Y254439D01*
X370823Y253328D01*
X370823Y252217D01*
X371267Y251106D01*
X372156Y250550D01*
X373045Y250550D01*
X373934Y251106D01*
X374378Y252217D01*
G54D11*
X367712Y256106D02*
X365489Y259439D01*
X365489Y250550D01*
G54D11*
X362378Y257773D02*
X361934Y258884D01*
X361045Y259439D01*
X360156Y259439D01*
X359267Y258884D01*
X358823Y257773D01*
X358823Y256662D01*
X359267Y255550D01*
X360156Y254995D01*
X359267Y254439D01*
X358823Y253328D01*
X358823Y252217D01*
X359267Y251106D01*
X360156Y250550D01*
X361045Y250550D01*
X361934Y251106D01*
X362378Y252217D01*
G54D11*
X355712Y250550D02*
X353489Y259439D01*
X351267Y250550D01*
G54D11*
X354823Y253884D02*
X352156Y253884D01*
G54D11*
X348156Y254439D02*
X344601Y254439D01*
G54D11*
X341490Y252217D02*
X341045Y251106D01*
X340156Y250550D01*
X339267Y250550D01*
X338378Y251106D01*
X337934Y252217D01*
X337934Y253328D01*
X338378Y254439D01*
X339267Y254995D01*
X340156Y254995D01*
X341045Y255550D01*
X341490Y256662D01*
X341490Y257773D01*
X341045Y258884D01*
X340156Y259439D01*
X339267Y259439D01*
X338378Y258884D01*
X337934Y257773D01*
G54D11*
X334822Y259439D02*
X334822Y252217D01*
X334378Y251106D01*
X333489Y250550D01*
X332600Y250550D01*
X331711Y251106D01*
X331267Y252217D01*
X331267Y259439D01*
G54D10*
X506088Y300125D02*
X505956Y320906D01*
X490875Y320906D01*
G54D10*
X490869Y300131D02*
X506088Y300125D01*
G54D10*
X466225Y300131D02*
X466356Y320912D01*
X481438Y320912D01*
G54D10*
X481444Y300138D02*
X466225Y300131D01*
G54D11*
X482661Y337942D02*
X483106Y336831D01*
X483995Y336275D01*
X484884Y336275D01*
X485772Y336831D01*
X486217Y337942D01*
X486217Y343498D01*
X485772Y344609D01*
X484884Y345164D01*
X483995Y345164D01*
X483106Y344609D01*
X482661Y343498D01*
G54D11*
X479550Y337942D02*
X479106Y336831D01*
X478216Y336275D01*
X477328Y336275D01*
X476439Y336831D01*
X475994Y337942D01*
X475994Y340720D01*
X475994Y341275D01*
X477328Y340164D01*
X478216Y340164D01*
X479106Y340720D01*
X479550Y341831D01*
X479550Y343498D01*
X479106Y344609D01*
X478216Y345164D01*
X477328Y345164D01*
X476439Y344609D01*
X475994Y343498D01*
X475994Y340720D01*
G54D11*
X482732Y331027D02*
X482732Y325472D01*
X483177Y324361D01*
X484066Y323805D01*
X484955Y323805D01*
X485844Y324361D01*
X486288Y325472D01*
X486288Y331027D01*
X485844Y332139D01*
X484955Y332694D01*
X484066Y332694D01*
X483177Y332139D01*
X482732Y331027D01*
G54D11*
X479265Y323805D02*
X479621Y323805D01*
X479621Y324250D01*
X479265Y324250D01*
X479265Y323805D01*
X479621Y323805D01*
G54D11*
X476154Y329361D02*
X473932Y332694D01*
X473932Y323805D01*
G54D10*
X528206Y312575D02*
X528206Y327675D01*
X550444Y327675D01*
X550444Y312575D01*
X528206Y312575D01*
G36*
X528206Y312575D02*
X528206Y327675D01*
X535306Y327675D01*
X535306Y312575D01*
X528206Y312575D01*
G37*
G54D13*
X528206Y312575D02*
X528206Y327675D01*
X535306Y327675D01*
X535306Y312575D01*
X528206Y312575D01*
G54D11*
X477477Y403268D02*
X475255Y394379D01*
X473032Y403268D01*
G54D11*
X469922Y394379D02*
X469922Y403268D01*
X467700Y403268D01*
X466811Y402712D01*
X466366Y401601D01*
X466366Y396046D01*
X466811Y394934D01*
X467700Y394379D01*
X469922Y394379D01*
G54D11*
X463255Y401601D02*
X462810Y402712D01*
X461922Y403268D01*
X461033Y403268D01*
X460144Y402712D01*
X459699Y401601D01*
X459699Y400490D01*
X460144Y399379D01*
X461033Y398823D01*
X460144Y398268D01*
X459699Y397157D01*
X459699Y396046D01*
X460144Y394934D01*
X461033Y394379D01*
X461922Y394379D01*
X462810Y394934D01*
X463255Y396046D01*
G54D11*
X477723Y387947D02*
X475501Y391280D01*
X475501Y382391D01*
G54D11*
X472390Y382391D02*
X472390Y391280D01*
X468835Y382391D01*
X468835Y391280D01*
G54D11*
X463056Y382391D02*
X463056Y391280D01*
X465723Y385724D01*
X465723Y384613D01*
X462168Y384613D01*
G54D11*
X459056Y387947D02*
X456834Y391280D01*
X456834Y382391D01*
G54D11*
X451056Y382391D02*
X451056Y391280D01*
X453723Y385724D01*
X453723Y384613D01*
X450168Y384613D01*
G54D11*
X444834Y386835D02*
X445723Y386835D01*
X446612Y387391D01*
X447056Y388502D01*
X447056Y389613D01*
X446612Y390724D01*
X445723Y391280D01*
X444834Y391280D01*
X443945Y390724D01*
X443501Y389613D01*
X443501Y388502D01*
X443945Y387391D01*
X444834Y386835D01*
X443945Y386280D01*
X443501Y385169D01*
X443501Y384058D01*
X443945Y382947D01*
X444834Y382391D01*
X445723Y382391D01*
X446612Y382947D01*
X447056Y384058D01*
X447056Y385169D01*
X446612Y386280D01*
X445723Y386835D01*
G54D11*
X440389Y391280D02*
X440389Y382391D01*
X438167Y387947D01*
X435945Y382391D01*
X435945Y391280D01*
G54D10*
X587700Y392862D02*
X608481Y392994D01*
X608481Y408075D01*
G54D10*
X587706Y408081D02*
X587700Y392862D01*
G54D10*
X587706Y432725D02*
X608488Y432594D01*
X608488Y417512D01*
G54D10*
X587712Y417506D02*
X587706Y432725D01*
G54D11*
X603306Y450500D02*
X603751Y449389D01*
X604640Y448834D01*
X605528Y448834D01*
X606417Y449389D01*
X606862Y450500D01*
X606862Y456056D01*
X606417Y457167D01*
X605528Y457723D01*
X604640Y457723D01*
X603751Y457167D01*
X603306Y456056D01*
G54D11*
X600195Y454389D02*
X597972Y457723D01*
X597972Y448834D01*
G54D11*
X591306Y456056D02*
X591306Y450500D01*
X591751Y449389D01*
X592640Y448834D01*
X593528Y448834D01*
X594417Y449389D01*
X594862Y450500D01*
X594862Y456056D01*
X594417Y457167D01*
X593528Y457723D01*
X592640Y457723D01*
X591751Y457167D01*
X591306Y456056D01*
G54D11*
X603207Y443563D02*
X603207Y438008D01*
X603652Y436897D01*
X604540Y436341D01*
X605429Y436341D01*
X606318Y436897D01*
X606763Y438008D01*
X606763Y443563D01*
X606318Y444675D01*
X605429Y445230D01*
X604540Y445230D01*
X603652Y444675D01*
X603207Y443563D01*
G54D11*
X599740Y436341D02*
X600096Y436341D01*
X600096Y436786D01*
X599740Y436786D01*
X599740Y436341D01*
X600096Y436341D01*
G54D11*
X596629Y441897D02*
X594406Y445230D01*
X594406Y436341D01*
G54D10*
X569312Y277912D02*
X594850Y277906D01*
X594850Y294575D01*
G54D10*
X569475Y294717D02*
X569312Y277912D01*
G54D10*
X569450Y331088D02*
X594988Y331094D01*
X594988Y314425D01*
G54D10*
X569612Y314283D02*
X569450Y331088D01*
G54D11*
X587468Y350889D02*
X586134Y349778D01*
X585690Y348667D01*
X585690Y346445D01*
G54D11*
X589246Y346445D02*
X589246Y355334D01*
X587023Y355334D01*
X586134Y354778D01*
X585690Y353667D01*
X585690Y352556D01*
X586134Y351445D01*
X587023Y350889D01*
X589246Y350889D01*
G54D11*
X582578Y352001D02*
X580356Y355334D01*
X580356Y346445D01*
G54D11*
X573690Y353667D02*
X573690Y348112D01*
X574134Y347001D01*
X575023Y346445D01*
X575912Y346445D01*
X576801Y347001D01*
X577246Y348112D01*
X577246Y353667D01*
X576801Y354778D01*
X575912Y355334D01*
X575023Y355334D01*
X574134Y354778D01*
X573690Y353667D01*
G54D11*
X589362Y339283D02*
X587140Y342616D01*
X587140Y333728D01*
G54D11*
X580473Y340950D02*
X580473Y335394D01*
X580918Y334283D01*
X581807Y333728D01*
X582696Y333728D01*
X583585Y334283D01*
X584029Y335394D01*
X584029Y340950D01*
X583585Y342061D01*
X582696Y342616D01*
X581807Y342616D01*
X580918Y342061D01*
X580473Y340950D01*
G54D11*
X577362Y333728D02*
X577362Y342616D01*
G54D11*
X576029Y337061D02*
X574695Y333728D01*
G54D11*
X577362Y335950D02*
X574695Y338728D01*
G54D10*
X559125Y148388D02*
X579906Y148519D01*
X579906Y163600D01*
G54D10*
X559131Y163606D02*
X559125Y148388D01*
G54D10*
X559131Y188250D02*
X579912Y188118D01*
X579912Y173037D01*
G54D10*
X559138Y173031D02*
X559131Y188250D01*
G54D11*
X562222Y205517D02*
X562667Y204406D01*
X563556Y203850D01*
X564445Y203850D01*
X565334Y204406D01*
X565778Y205517D01*
X565778Y211073D01*
X565334Y212184D01*
X564445Y212739D01*
X563556Y212739D01*
X562667Y212184D01*
X562222Y211073D01*
G54D11*
X555556Y212739D02*
X559111Y212739D01*
X559111Y208850D01*
X558666Y208850D01*
X557778Y209406D01*
X556889Y209406D01*
X556000Y208850D01*
X555556Y207739D01*
X555556Y205517D01*
X556000Y204406D01*
X556889Y203850D01*
X557778Y203850D01*
X558666Y204406D01*
X559111Y205517D01*
G54D11*
X562136Y191028D02*
X565691Y191028D01*
X565691Y191584D01*
X565247Y192695D01*
X562580Y196028D01*
X562136Y197139D01*
X562136Y198250D01*
X562580Y199362D01*
X563469Y199917D01*
X564358Y199917D01*
X565247Y199362D01*
X565691Y198250D01*
G54D11*
X555468Y191028D02*
X559024Y191028D01*
X559024Y191584D01*
X558580Y192695D01*
X555913Y196028D01*
X555468Y197139D01*
X555468Y198250D01*
X555913Y199362D01*
X556802Y199917D01*
X557691Y199917D01*
X558580Y199362D01*
X559024Y198250D01*
G54D10*
X581350Y148388D02*
X602131Y148519D01*
X602131Y163600D01*
G54D10*
X581356Y163606D02*
X581350Y148388D01*
G54D10*
X581356Y188250D02*
X602138Y188119D01*
X602138Y173038D01*
G54D10*
X581362Y173031D02*
X581356Y188250D01*
G54D11*
X600322Y205517D02*
X600767Y204406D01*
X601656Y203850D01*
X602544Y203850D01*
X603433Y204406D01*
X603878Y205517D01*
X603878Y211072D01*
X603433Y212183D01*
X602544Y212739D01*
X601656Y212739D01*
X600767Y212183D01*
X600322Y211072D01*
G54D11*
X593655Y211072D02*
X594100Y212183D01*
X594988Y212739D01*
X595878Y212739D01*
X596766Y212183D01*
X597211Y211072D01*
X597211Y208294D01*
X597211Y207739D01*
X595878Y208850D01*
X594988Y208850D01*
X594100Y208294D01*
X593655Y207183D01*
X593655Y205517D01*
X594100Y204406D01*
X594988Y203850D01*
X595878Y203850D01*
X596766Y204406D01*
X597211Y205517D01*
X597211Y208294D01*
G54D11*
X599919Y191028D02*
X603475Y191028D01*
X603475Y191584D01*
X603030Y192695D01*
X600364Y196028D01*
X599919Y197139D01*
X599919Y198250D01*
X600364Y199361D01*
X601253Y199917D01*
X602142Y199917D01*
X603030Y199361D01*
X603475Y198250D01*
G54D11*
X593252Y191028D02*
X596808Y191028D01*
X596808Y191584D01*
X596364Y192695D01*
X593697Y196028D01*
X593252Y197139D01*
X593252Y198250D01*
X593697Y199361D01*
X594586Y199917D01*
X595474Y199917D01*
X596364Y199361D01*
X596808Y198250D01*
G54D10*
X661388Y236638D02*
X686925Y236631D01*
X686925Y253300D01*
G54D10*
X661550Y253442D02*
X661388Y236638D01*
G54D10*
X661525Y289812D02*
X687062Y289819D01*
X687062Y273150D01*
G54D10*
X661687Y273008D02*
X661525Y289812D01*
G54D11*
X680686Y312662D02*
X679353Y311551D01*
X678908Y310440D01*
X678908Y308218D01*
G54D11*
X682464Y308218D02*
X682464Y317106D01*
X680242Y317106D01*
X679353Y316551D01*
X678908Y315440D01*
X678908Y314329D01*
X679353Y313218D01*
X680242Y312662D01*
X682464Y312662D01*
G54D11*
X675797Y313773D02*
X673575Y317106D01*
X673575Y308218D01*
G54D11*
X679860Y295130D02*
X679860Y304018D01*
X682527Y298463D01*
X682527Y297352D01*
X678972Y297352D01*
G54D11*
X675504Y295130D02*
X675860Y295130D01*
X675860Y295574D01*
X675504Y295574D01*
X675504Y295130D01*
X675860Y295130D01*
G54D11*
X672393Y304018D02*
X668838Y304018D01*
X669282Y302907D01*
X670171Y301241D01*
X671060Y299018D01*
X671504Y297352D01*
X671504Y295130D01*
G54D11*
X665726Y295130D02*
X665726Y304018D01*
G54D11*
X664393Y298463D02*
X663059Y295130D01*
G54D11*
X665726Y297352D02*
X663059Y300130D01*
G54D10*
X610588Y236638D02*
X636125Y236631D01*
X636125Y253300D01*
G54D10*
X610750Y253442D02*
X610588Y236638D01*
G54D10*
X610725Y289812D02*
X636262Y289819D01*
X636262Y273150D01*
G54D10*
X610887Y273008D02*
X610725Y289812D01*
G54D11*
X629992Y312499D02*
X628659Y311388D01*
X628214Y310277D01*
X628214Y308054D01*
G54D11*
X631770Y308054D02*
X631770Y316943D01*
X629548Y316943D01*
X628659Y316388D01*
X628214Y315277D01*
X628214Y314166D01*
X628659Y313054D01*
X629548Y312499D01*
X631770Y312499D01*
G54D11*
X621548Y308054D02*
X625103Y308054D01*
X625103Y308610D01*
X624658Y309721D01*
X621992Y313054D01*
X621548Y314166D01*
X621548Y315277D01*
X621992Y316388D01*
X622881Y316943D01*
X623770Y316943D01*
X624658Y316388D01*
X625103Y315277D01*
G54D11*
X629044Y295167D02*
X629044Y304056D01*
X631711Y298501D01*
X631711Y297390D01*
X628156Y297390D01*
G54D11*
X624688Y295167D02*
X625044Y295167D01*
X625044Y295612D01*
X624688Y295612D01*
X624688Y295167D01*
X625044Y295167D01*
G54D11*
X621577Y304056D02*
X618022Y304056D01*
X618466Y302945D01*
X619355Y301279D01*
X620244Y299056D01*
X620688Y297390D01*
X620688Y295167D01*
G54D11*
X614910Y295167D02*
X614910Y304056D01*
G54D11*
X613577Y298501D02*
X612243Y295167D01*
G54D11*
X614910Y297390D02*
X612243Y300167D01*
G54D10*
X686788Y236832D02*
X712325Y236825D01*
X712325Y253494D01*
G54D10*
X686950Y253636D02*
X686788Y236832D01*
G54D10*
X686925Y290006D02*
X712462Y290013D01*
X712462Y273344D01*
G54D10*
X687087Y273202D02*
X686925Y290006D01*
G54D11*
X705874Y312693D02*
X704540Y311582D01*
X704096Y310471D01*
X704096Y308249D01*
G54D11*
X707652Y308249D02*
X707652Y317138D01*
X705429Y317138D01*
X704540Y316582D01*
X704096Y315471D01*
X704096Y314360D01*
X704540Y313249D01*
X705429Y312693D01*
X707652Y312693D01*
G54D11*
X697429Y315471D02*
X697873Y316582D01*
X698762Y317138D01*
X699651Y317138D01*
X700540Y316582D01*
X700984Y315471D01*
X700984Y312693D01*
X700984Y312138D01*
X699651Y313249D01*
X698762Y313249D01*
X697873Y312693D01*
X697429Y311582D01*
X697429Y309916D01*
X697873Y308805D01*
X698762Y308249D01*
X699651Y308249D01*
X700540Y308805D01*
X700984Y309916D01*
X700984Y312693D01*
G54D11*
X708092Y300944D02*
X705869Y304277D01*
X705869Y295388D01*
G54D11*
X699203Y302611D02*
X699203Y297055D01*
X699647Y295944D01*
X700536Y295388D01*
X701425Y295388D01*
X702314Y295944D01*
X702758Y297055D01*
X702758Y302611D01*
X702314Y303722D01*
X701425Y304277D01*
X700536Y304277D01*
X699647Y303722D01*
X699203Y302611D01*
G54D11*
X696092Y295388D02*
X696092Y304277D01*
G54D11*
X694758Y298722D02*
X693425Y295388D01*
G54D11*
X696092Y297611D02*
X693425Y300388D01*
G54D10*
X684550Y216290D02*
X663769Y216159D01*
X663769Y201078D01*
G54D10*
X684544Y201071D02*
X684550Y216290D01*
G54D10*
X684544Y176428D02*
X663762Y176559D01*
X663762Y191640D01*
G54D10*
X684538Y191647D02*
X684544Y176428D01*
G54D11*
X679452Y220884D02*
X679897Y219773D01*
X680786Y219218D01*
X681674Y219218D01*
X682563Y219773D01*
X683008Y220884D01*
X683008Y226440D01*
X682563Y227551D01*
X681674Y228107D01*
X680786Y228107D01*
X679897Y227551D01*
X679452Y226440D01*
G54D11*
X676341Y224773D02*
X674118Y228107D01*
X674118Y219218D01*
G54D11*
X679526Y171304D02*
X679526Y165748D01*
X679971Y164637D01*
X680860Y164082D01*
X681748Y164082D01*
X682637Y164637D01*
X683082Y165748D01*
X683082Y171304D01*
X682637Y172415D01*
X681748Y172971D01*
X680860Y172971D01*
X679971Y172415D01*
X679526Y171304D01*
G54D11*
X676059Y164082D02*
X676415Y164082D01*
X676415Y164526D01*
X676059Y164526D01*
X676059Y164082D01*
X676415Y164082D01*
G54D11*
X669392Y171304D02*
X669392Y165748D01*
X669837Y164637D01*
X670726Y164082D01*
X671614Y164082D01*
X672503Y164637D01*
X672948Y165748D01*
X672948Y171304D01*
X672503Y172415D01*
X671614Y172971D01*
X670726Y172971D01*
X669837Y172415D01*
X669392Y171304D01*
G54D11*
X666281Y169637D02*
X664058Y172971D01*
X664058Y164082D01*
G54D10*
X633750Y216290D02*
X612969Y216159D01*
X612969Y201078D01*
G54D10*
X633744Y201071D02*
X633750Y216290D01*
G54D10*
X633744Y176428D02*
X612962Y176559D01*
X612962Y191640D01*
G54D10*
X633738Y191646D02*
X633744Y176428D01*
G54D11*
X628684Y220915D02*
X629129Y219804D01*
X630018Y219248D01*
X630906Y219248D01*
X631795Y219804D01*
X632240Y220915D01*
X632240Y226470D01*
X631795Y227582D01*
X630906Y228137D01*
X630018Y228137D01*
X629129Y227582D01*
X628684Y226470D01*
G54D11*
X622017Y219248D02*
X625573Y219248D01*
X625573Y219804D01*
X625128Y220915D01*
X622462Y224248D01*
X622017Y225359D01*
X622017Y226470D01*
X622462Y227582D01*
X623350Y228137D01*
X624240Y228137D01*
X625128Y227582D01*
X625573Y226470D01*
G54D11*
X628726Y171303D02*
X628726Y165747D01*
X629171Y164636D01*
X630060Y164081D01*
X630948Y164081D01*
X631837Y164636D01*
X632282Y165747D01*
X632282Y171303D01*
X631837Y172414D01*
X630948Y172970D01*
X630060Y172970D01*
X629171Y172414D01*
X628726Y171303D01*
G54D11*
X625259Y164081D02*
X625615Y164081D01*
X625615Y164525D01*
X625259Y164525D01*
X625259Y164081D01*
X625615Y164081D01*
G54D11*
X618592Y171303D02*
X618592Y165747D01*
X619037Y164636D01*
X619926Y164081D01*
X620814Y164081D01*
X621703Y164636D01*
X622148Y165747D01*
X622148Y171303D01*
X621703Y172414D01*
X620814Y172970D01*
X619926Y172970D01*
X619037Y172414D01*
X618592Y171303D01*
G54D11*
X615481Y169636D02*
X613258Y172970D01*
X613258Y164081D01*
G54D10*
X454362Y129612D02*
X454356Y104075D01*
X471025Y104075D01*
G54D10*
X471167Y129450D02*
X454362Y129612D01*
G54D10*
X507538Y129475D02*
X507544Y103938D01*
X490875Y103938D01*
G54D10*
X490733Y129313D02*
X507538Y129475D01*
G54D11*
X504193Y136189D02*
X502859Y135078D01*
X502415Y133967D01*
X502415Y131744D01*
G54D11*
X505970Y131744D02*
X505970Y140633D01*
X503748Y140633D01*
X502859Y140078D01*
X502415Y138967D01*
X502415Y137856D01*
X502859Y136744D01*
X503748Y136189D01*
X505970Y136189D01*
G54D11*
X499304Y138967D02*
X498859Y140078D01*
X497970Y140633D01*
X497081Y140633D01*
X496192Y140078D01*
X495748Y138967D01*
X495748Y137856D01*
X496192Y136744D01*
X497081Y136189D01*
X496192Y135633D01*
X495748Y134522D01*
X495748Y133411D01*
X496192Y132300D01*
X497081Y131744D01*
X497970Y131744D01*
X498859Y132300D01*
X499304Y133411D01*
G54D11*
X476754Y141015D02*
X480309Y141015D01*
X480309Y137126D01*
X479864Y137126D01*
X478976Y137682D01*
X478087Y137682D01*
X477198Y137126D01*
X476754Y136015D01*
X476754Y133793D01*
X477198Y132682D01*
X478087Y132126D01*
X478976Y132126D01*
X479864Y132682D01*
X480309Y133793D01*
G54D11*
X473642Y137682D02*
X471420Y141015D01*
X471420Y132126D01*
G54D11*
X464754Y139349D02*
X464754Y133793D01*
X465198Y132682D01*
X466087Y132126D01*
X466976Y132126D01*
X467864Y132682D01*
X468309Y133793D01*
X468309Y139349D01*
X467864Y140460D01*
X466976Y141015D01*
X466087Y141015D01*
X465198Y140460D01*
X464754Y139349D01*
G54D10*
X626409Y121618D02*
X626415Y147156D01*
X609746Y147156D01*
G54D10*
X609604Y121780D02*
X626409Y121618D01*
G54D10*
X573234Y121756D02*
X573228Y147293D01*
X589896Y147293D01*
G54D10*
X590039Y121918D02*
X573234Y121756D01*
G54D11*
X640949Y142957D02*
X639615Y141846D01*
X639171Y140735D01*
X639171Y138512D01*
G54D11*
X642726Y138512D02*
X642726Y147401D01*
X640504Y147401D01*
X639615Y146846D01*
X639171Y145735D01*
X639171Y144624D01*
X639615Y143512D01*
X640504Y142957D01*
X642726Y142957D01*
G54D11*
X636060Y147401D02*
X632504Y147401D01*
X632948Y146290D01*
X633837Y144624D01*
X634726Y142401D01*
X635171Y140735D01*
X635171Y138512D01*
G54D11*
X642107Y132537D02*
X639885Y135870D01*
X639885Y126982D01*
G54D11*
X636774Y126982D02*
X636774Y135870D01*
G54D11*
X635441Y130315D02*
X634107Y126982D01*
G54D11*
X636774Y129204D02*
X634107Y131982D01*
G54D10*
X343888Y77888D02*
X369425Y77881D01*
X369425Y94550D01*
G54D10*
X344050Y94692D02*
X343888Y77888D01*
G54D10*
X344025Y131062D02*
X369562Y131069D01*
X369562Y114400D01*
G54D10*
X344187Y114258D02*
X344025Y131062D01*
G54D11*
X338105Y113907D02*
X336771Y112796D01*
X336327Y111685D01*
X336327Y109462D01*
G54D11*
X339882Y109462D02*
X339882Y118351D01*
X337660Y118351D01*
X336771Y117796D01*
X336327Y116685D01*
X336327Y115574D01*
X336771Y114462D01*
X337660Y113907D01*
X339882Y113907D01*
G54D11*
X330549Y109462D02*
X330549Y118351D01*
X333216Y112796D01*
X333216Y111685D01*
X329660Y111685D01*
G54D11*
X339944Y100978D02*
X337722Y104311D01*
X337722Y95422D01*
G54D11*
X334612Y95422D02*
X334612Y104311D01*
G54D11*
X333278Y98755D02*
X331945Y95422D01*
G54D11*
X334612Y97644D02*
X331945Y100422D01*
G54D10*
X404212Y90588D02*
X429750Y90581D01*
X429750Y107250D01*
G54D10*
X404375Y107392D02*
X404212Y90588D01*
G54D10*
X404350Y143762D02*
X429888Y143769D01*
X429888Y127100D01*
G54D10*
X404512Y126958D02*
X404350Y143762D01*
G54D11*
X398112Y122479D02*
X396778Y121368D01*
X396334Y120257D01*
X396334Y118035D01*
G54D11*
X399890Y118035D02*
X399890Y126924D01*
X397667Y126924D01*
X396778Y126368D01*
X396334Y125257D01*
X396334Y124146D01*
X396778Y123035D01*
X397667Y122479D01*
X399890Y122479D01*
G54D11*
X389667Y126924D02*
X393222Y126924D01*
X393222Y123035D01*
X392778Y123035D01*
X391889Y123591D01*
X391000Y123591D01*
X390111Y123035D01*
X389667Y121924D01*
X389667Y119702D01*
X390111Y118591D01*
X391000Y118035D01*
X391889Y118035D01*
X392778Y118591D01*
X393222Y119702D01*
G54D11*
X396396Y110978D02*
X399952Y110978D01*
X399952Y107090D01*
X399508Y107090D01*
X398619Y107645D01*
X397730Y107645D01*
X396841Y107090D01*
X396396Y105978D01*
X396396Y103756D01*
X396841Y102645D01*
X397730Y102090D01*
X398619Y102090D01*
X399508Y102645D01*
X399952Y103756D01*
G54D11*
X393285Y107645D02*
X391063Y110978D01*
X391063Y102090D01*
G54D11*
X384396Y109312D02*
X384396Y103756D01*
X384841Y102645D01*
X385730Y102090D01*
X386619Y102090D01*
X387508Y102645D01*
X387952Y103756D01*
X387952Y109312D01*
X387508Y110423D01*
X386619Y110978D01*
X385730Y110978D01*
X384841Y110423D01*
X384396Y109312D01*
G54D10*
X748788Y209581D02*
X748788Y217519D01*
X784556Y217519D01*
X784556Y209581D01*
X748788Y209581D01*
G54D10*
X773394Y217581D02*
X773394Y231869D01*
X759106Y231869D01*
X759106Y217581D01*
G54D10*
X782919Y208850D02*
X782919Y195356D01*
X768631Y195356D01*
X768631Y208850D01*
G54D10*
X763869Y208850D02*
X763869Y195356D01*
X749581Y195356D01*
X749581Y208850D01*
G54D11*
X742752Y213621D02*
X740530Y204732D01*
X738308Y213621D01*
G54D11*
X733419Y204732D02*
X733419Y213621D01*
G54D11*
X735197Y213621D02*
X731642Y213621D01*
G54D11*
X728530Y210288D02*
X726308Y213621D01*
X726308Y204732D01*
G54D11*
X742491Y191876D02*
X742491Y200765D01*
X740269Y200765D01*
X739380Y200210D01*
X738936Y199099D01*
X738936Y197988D01*
X739380Y196876D01*
X740269Y196321D01*
X739380Y195765D01*
X738936Y194654D01*
X738936Y193543D01*
X739380Y192432D01*
X740269Y191876D01*
X742491Y191876D01*
G54D11*
X742491Y196321D02*
X740269Y196321D01*
G54D11*
X732268Y193543D02*
X732713Y192432D01*
X733602Y191876D01*
X734491Y191876D01*
X735380Y192432D01*
X735824Y193543D01*
X735824Y199099D01*
X735380Y200210D01*
X734491Y200765D01*
X733602Y200765D01*
X732713Y200210D01*
X732268Y199099D01*
G54D11*
X726935Y196321D02*
X727824Y196321D01*
X728712Y196876D01*
X729157Y197988D01*
X729157Y199099D01*
X728712Y200210D01*
X727824Y200765D01*
X726935Y200765D01*
X726046Y200210D01*
X725602Y199099D01*
X725602Y197988D01*
X726046Y196876D01*
X726935Y196321D01*
X726046Y195765D01*
X725602Y194654D01*
X725602Y193543D01*
X726046Y192432D01*
X726935Y191876D01*
X727824Y191876D01*
X728712Y192432D01*
X729157Y193543D01*
X729157Y194654D01*
X728712Y195765D01*
X727824Y196321D01*
G54D11*
X722490Y197432D02*
X720268Y200765D01*
X720268Y191876D01*
G54D11*
X717157Y200765D02*
X713602Y200765D01*
X714046Y199654D01*
X714935Y197988D01*
X715824Y195765D01*
X716268Y194099D01*
X716268Y191876D01*
G54D10*
X755138Y330231D02*
X755138Y338169D01*
X790906Y338169D01*
X790906Y330231D01*
X755138Y330231D01*
G54D10*
X779744Y338231D02*
X779744Y352519D01*
X765456Y352519D01*
X765456Y338231D01*
G54D10*
X789269Y329500D02*
X789269Y316006D01*
X774981Y316006D01*
X774981Y329500D01*
G54D10*
X770219Y329500D02*
X770219Y316006D01*
X755931Y316006D01*
X755931Y329500D01*
G54D11*
X800872Y379402D02*
X798649Y370513D01*
X796427Y379402D01*
G54D11*
X791539Y370513D02*
X791539Y379402D01*
G54D11*
X793316Y379402D02*
X789761Y379402D01*
G54D11*
X786650Y377735D02*
X786205Y378846D01*
X785316Y379402D01*
X784427Y379402D01*
X783538Y378846D01*
X783094Y377735D01*
X783094Y376624D01*
X783538Y375513D01*
X784427Y374957D01*
X783538Y374402D01*
X783094Y373291D01*
X783094Y372180D01*
X783538Y371069D01*
X784427Y370513D01*
X785316Y370513D01*
X786205Y371069D01*
X786650Y372180D01*
G54D11*
X796940Y357832D02*
X800496Y357832D01*
X800496Y358387D01*
X800052Y359498D01*
X797385Y362832D01*
X796940Y363943D01*
X796940Y365054D01*
X797385Y366165D01*
X798274Y366720D01*
X799163Y366720D01*
X800052Y366165D01*
X800496Y365054D01*
G54D11*
X793829Y357832D02*
X793829Y366720D01*
X790274Y357832D01*
X790274Y366720D01*
G54D11*
X787162Y366720D02*
X783606Y366720D01*
X784051Y365609D01*
X784940Y363943D01*
X785829Y361720D01*
X786273Y360054D01*
X786273Y357832D01*
G54D11*
X776940Y365054D02*
X776940Y359498D01*
X777384Y358387D01*
X778273Y357832D01*
X779162Y357832D01*
X780050Y358387D01*
X780495Y359498D01*
X780495Y365054D01*
X780050Y366165D01*
X779162Y366720D01*
X778273Y366720D01*
X777384Y366165D01*
X776940Y365054D01*
G54D11*
X770272Y365054D02*
X770272Y359498D01*
X770717Y358387D01*
X771606Y357832D01*
X772495Y357832D01*
X773384Y358387D01*
X773828Y359498D01*
X773828Y365054D01*
X773384Y366165D01*
X772495Y366720D01*
X771606Y366720D01*
X770717Y366165D01*
X770272Y365054D01*
G54D11*
X763606Y357832D02*
X767161Y357832D01*
X767161Y358387D01*
X766716Y359498D01*
X764050Y362832D01*
X763606Y363943D01*
X763606Y365054D01*
X764050Y366165D01*
X764939Y366720D01*
X765828Y366720D01*
X766716Y366165D01*
X767161Y365054D01*
G54D10*
X775688Y252512D02*
X801225Y252506D01*
X801225Y269175D01*
G54D10*
X775850Y269317D02*
X775688Y252512D01*
G54D10*
X775825Y305688D02*
X801362Y305694D01*
X801362Y289025D01*
G54D10*
X775987Y288883D02*
X775825Y305688D01*
G54D11*
X769270Y276150D02*
X767937Y275039D01*
X767492Y273928D01*
X767492Y271706D01*
G54D11*
X771048Y271706D02*
X771048Y280594D01*
X768826Y280594D01*
X767937Y280039D01*
X767492Y278928D01*
X767492Y277817D01*
X767937Y276706D01*
X768826Y276150D01*
X771048Y276150D01*
G54D11*
X764381Y273372D02*
X763937Y272261D01*
X763048Y271706D01*
X762159Y271706D01*
X761270Y272261D01*
X760825Y273372D01*
X760825Y276150D01*
X760825Y276706D01*
X762159Y275594D01*
X763048Y275594D01*
X763937Y276150D01*
X764381Y277261D01*
X764381Y278928D01*
X763937Y280039D01*
X763048Y280594D01*
X762159Y280594D01*
X761270Y280039D01*
X760825Y278928D01*
X760825Y276150D01*
G54D11*
X771110Y264808D02*
X768888Y268141D01*
X768888Y259252D01*
G54D11*
X762221Y266475D02*
X762221Y260919D01*
X762666Y259808D01*
X763555Y259252D01*
X764444Y259252D01*
X765333Y259808D01*
X765777Y260919D01*
X765777Y266475D01*
X765333Y267586D01*
X764444Y268141D01*
X763555Y268141D01*
X762666Y267586D01*
X762221Y266475D01*
G54D11*
X755554Y266475D02*
X755554Y260919D01*
X755999Y259808D01*
X756888Y259252D01*
X757777Y259252D01*
X758666Y259808D01*
X759110Y260919D01*
X759110Y266475D01*
X758666Y267586D01*
X757777Y268141D01*
X756888Y268141D01*
X755999Y267586D01*
X755554Y266475D01*
G54D10*
X801088Y252512D02*
X826625Y252506D01*
X826625Y269175D01*
G54D10*
X801250Y269317D02*
X801088Y252512D01*
G54D10*
X801225Y305688D02*
X826762Y305694D01*
X826762Y289025D01*
G54D10*
X801387Y288883D02*
X801225Y305688D01*
G54D11*
X846423Y275831D02*
X845089Y274720D01*
X844645Y273609D01*
X844645Y271387D01*
G54D11*
X848200Y271387D02*
X848200Y280276D01*
X845978Y280276D01*
X845089Y279720D01*
X844645Y278609D01*
X844645Y277498D01*
X845089Y276387D01*
X845978Y275831D01*
X848200Y275831D01*
G54D11*
X839311Y275831D02*
X840200Y275831D01*
X841089Y276387D01*
X841534Y277498D01*
X841534Y278609D01*
X841089Y279720D01*
X840200Y280276D01*
X839311Y280276D01*
X838422Y279720D01*
X837978Y278609D01*
X837978Y277498D01*
X838422Y276387D01*
X839311Y275831D01*
X838422Y275276D01*
X837978Y274165D01*
X837978Y273054D01*
X838422Y271943D01*
X839311Y271387D01*
X840200Y271387D01*
X841089Y271943D01*
X841534Y273054D01*
X841534Y274165D01*
X841089Y275276D01*
X840200Y275831D01*
G54D11*
X845596Y258934D02*
X845596Y267823D01*
X848262Y262267D01*
X848262Y261156D01*
X844707Y261156D01*
G54D11*
X841596Y267823D02*
X838040Y267823D01*
X838484Y266712D01*
X839373Y265045D01*
X840262Y262823D01*
X840707Y261156D01*
X840707Y258934D01*
G54D11*
X834928Y258934D02*
X834928Y267823D01*
G54D11*
X833595Y262267D02*
X832262Y258934D01*
G54D11*
X834928Y261156D02*
X832262Y263934D01*
G54D10*
X751475Y316831D02*
X736375Y316831D01*
X736375Y339069D01*
X751475Y339069D01*
X751475Y316831D01*
G36*
X751475Y316831D02*
X736375Y316831D01*
X736375Y323931D01*
X751475Y323931D01*
X751475Y316831D01*
G37*
G54D13*
X751475Y316831D02*
X736375Y316831D01*
X736375Y323931D01*
X751475Y323931D01*
X751475Y316831D01*
G54D11*
X750303Y379451D02*
X748080Y370562D01*
X745858Y379451D01*
G54D11*
X742748Y370562D02*
X742748Y379451D01*
X740525Y379451D01*
X739636Y378896D01*
X739192Y377785D01*
X739192Y372229D01*
X739636Y371118D01*
X740525Y370562D01*
X742748Y370562D01*
G54D11*
X733414Y370562D02*
X733414Y379451D01*
X736081Y373896D01*
X736081Y372785D01*
X732525Y372785D01*
G54D11*
X750850Y363370D02*
X748627Y366703D01*
X748627Y357814D01*
G54D11*
X745516Y357814D02*
X745516Y366703D01*
X741961Y357814D01*
X741961Y366703D01*
G54D11*
X736183Y357814D02*
X736183Y366703D01*
X738850Y361148D01*
X738850Y360037D01*
X735294Y360037D01*
G54D11*
X732182Y363370D02*
X729960Y366703D01*
X729960Y357814D01*
G54D11*
X724183Y357814D02*
X724183Y366703D01*
X726850Y361148D01*
X726850Y360037D01*
X723294Y360037D01*
G54D11*
X717960Y362259D02*
X718849Y362259D01*
X719738Y362814D01*
X720182Y363926D01*
X720182Y365037D01*
X719738Y366148D01*
X718849Y366703D01*
X717960Y366703D01*
X717071Y366148D01*
X716627Y365037D01*
X716627Y363926D01*
X717071Y362814D01*
X717960Y362259D01*
X717071Y361703D01*
X716627Y360592D01*
X716627Y359481D01*
X717071Y358370D01*
X717960Y357814D01*
X718849Y357814D01*
X719738Y358370D01*
X720182Y359481D01*
X720182Y360592D01*
X719738Y361703D01*
X718849Y362259D01*
G54D11*
X713516Y366703D02*
X713516Y357814D01*
X711293Y363370D01*
X709071Y357814D01*
X709071Y366703D01*
G54D12*
X432925Y431100D02*
X432925Y405700D01*
X480550Y405700D01*
X480550Y431100D01*
X432925Y431100D01*
G54D12*
X432925Y405700D02*
X432925Y380300D01*
X480550Y380300D01*
X480550Y405700D01*
X432925Y405700D01*
G54D12*
X480550Y380300D02*
X493250Y367600D01*
X493250Y332675D01*
X496425Y329500D01*
X509125Y329500D01*
X505950Y332675D01*
G54D12*
X509125Y329500D02*
X505950Y326325D01*
G54D12*
X512300Y345375D02*
X509125Y345375D01*
X509125Y313625D01*
X512300Y313625D01*
M02*
