%FSLAX34Y34*%
%MOMM*%
%LNSILK_TOP*%
G71*
G01*
%ADD10C, 0.150*%
%ADD11C, 0.159*%
%ADD12C, 0.300*%
%ADD13C, 0.200*%
%ADD14C, 0.600*%
%ADD15C, 0.400*%
%ADD16C, 0.206*%
%ADD17C, 0.191*%
%ADD18C, 0.476*%
%ADD19C, 0.238*%
%LPD*%
G54D10*
X841548Y422845D02*
X685972Y422845D01*
X685972Y318070D01*
X841548Y318070D01*
X841548Y422845D01*
G54D10*
G75*
G01X801225Y389825D02*
G03X801225Y377125I0J-6350D01*
G01*
G54D10*
G75*
G01X801225Y377125D02*
G03X801225Y364425I0J-6350D01*
G01*
G54D10*
G75*
G01X801225Y364425D02*
G03X801225Y351725I0J-6350D01*
G01*
G54D10*
X699625Y396175D02*
X699625Y345375D01*
G54D10*
X699625Y370775D02*
X756775Y370775D01*
X756775Y345375D01*
X813925Y345375D01*
X813925Y370775D01*
X820275Y370775D01*
X832975Y358075D01*
G54D10*
X826625Y345375D02*
X826625Y364425D01*
G54D10*
X826625Y396175D02*
X826625Y377125D01*
G54D11*
X686249Y427256D02*
X686249Y436145D01*
G54D11*
X686249Y430034D02*
X689804Y436145D01*
G54D11*
X687582Y431700D02*
X689804Y427256D01*
G54D11*
X692916Y432812D02*
X695138Y436145D01*
X695138Y427256D01*
G54D11*
X703446Y427070D02*
X703446Y435959D01*
G54D11*
X707002Y427070D02*
X707002Y435959D01*
G54D11*
X703446Y431515D02*
X707002Y431515D01*
G54D11*
X710114Y427070D02*
X710114Y435959D01*
G54D11*
X710114Y429848D02*
X713669Y435959D01*
G54D11*
X711447Y431515D02*
X713669Y427070D01*
G54D11*
X719447Y427070D02*
X719447Y435959D01*
X716780Y430403D01*
X716780Y429292D01*
X720336Y429292D01*
G54D11*
X723448Y432626D02*
X725670Y435959D01*
X725670Y427070D01*
G54D11*
X732336Y434292D02*
X732336Y428737D01*
X731892Y427626D01*
X731003Y427070D01*
X730114Y427070D01*
X729225Y427626D01*
X728780Y428737D01*
X728780Y434292D01*
X729225Y435403D01*
X730114Y435959D01*
X731003Y435959D01*
X731892Y435403D01*
X732336Y434292D01*
G54D11*
X739003Y434292D02*
X739003Y428737D01*
X738559Y427626D01*
X737670Y427070D01*
X736781Y427070D01*
X735892Y427626D01*
X735448Y428737D01*
X735448Y434292D01*
X735892Y435403D01*
X736781Y435959D01*
X737670Y435959D01*
X738559Y435403D01*
X739003Y434292D01*
G54D11*
X742114Y427070D02*
X742114Y435959D01*
X745226Y435959D01*
G54D11*
X742114Y431515D02*
X745226Y431515D01*
G54D11*
X748336Y430959D02*
X751892Y430959D01*
G54D11*
X755004Y427070D02*
X755004Y435959D01*
X757226Y435959D01*
X758115Y435403D01*
X758559Y434292D01*
X758559Y428737D01*
X758115Y427626D01*
X757226Y427070D01*
X755004Y427070D01*
G54D11*
X765226Y428737D02*
X764782Y427626D01*
X763893Y427070D01*
X763004Y427070D01*
X762115Y427626D01*
X761670Y428737D01*
X761670Y434292D01*
X762115Y435403D01*
X763004Y435959D01*
X763893Y435959D01*
X764782Y435403D01*
X765226Y434292D01*
G54D11*
X768338Y432626D02*
X770560Y435959D01*
X770560Y427070D01*
G54D11*
X777226Y427070D02*
X773670Y427070D01*
X773670Y427626D01*
X774115Y428737D01*
X776782Y432070D01*
X777226Y433181D01*
X777226Y434292D01*
X776782Y435403D01*
X775893Y435959D01*
X775004Y435959D01*
X774115Y435403D01*
X773670Y434292D01*
G54D11*
X780338Y435959D02*
X782560Y427070D01*
X784782Y435959D01*
G54D11*
X787892Y430959D02*
X791448Y430959D01*
G54D11*
X794560Y428737D02*
X795004Y427626D01*
X795893Y427070D01*
X796782Y427070D01*
X797671Y427626D01*
X798115Y428737D01*
X798115Y429848D01*
X797671Y430959D01*
X796782Y431515D01*
X795893Y431515D01*
X795004Y432070D01*
X794560Y433181D01*
X794560Y434292D01*
X795004Y435403D01*
X795893Y435959D01*
X796782Y435959D01*
X797671Y435403D01*
X798115Y434292D01*
G54D11*
X801226Y427070D02*
X801226Y435959D01*
G54D11*
X804782Y427070D02*
X804782Y435959D01*
G54D11*
X801226Y431515D02*
X804782Y431515D01*
G54D11*
X809671Y431515D02*
X811449Y431515D01*
X811449Y428737D01*
X811005Y427626D01*
X810116Y427070D01*
X809227Y427070D01*
X808338Y427626D01*
X807894Y428737D01*
X807894Y434292D01*
X808338Y435403D01*
X809227Y435959D01*
X810116Y435959D01*
X811005Y435403D01*
X811449Y434292D01*
G54D12*
X870700Y123525D02*
X870700Y223525D01*
X890700Y223525D01*
G54D12*
X878700Y123525D02*
X878700Y115525D01*
X890700Y115525D01*
X890700Y123525D01*
G54D12*
X870700Y123525D02*
X947525Y123525D01*
X947525Y223525D01*
G54D12*
X887525Y223525D02*
X947525Y223525D01*
G54D12*
X890700Y123525D02*
X890700Y223525D01*
G54D12*
G75*
G01X911254Y132587D02*
G03X919796Y132587I4271J15938D01*
G01*
G54D12*
G75*
G01X919796Y164463D02*
G03X911254Y164463I-4271J-15938D01*
G01*
G54D12*
G75*
G01X899587Y152796D02*
G03X899587Y144254I15938J-4271D01*
G01*
G54D12*
G75*
G01X931463Y144254D02*
G03X931463Y152796I-15938J4271D01*
G01*
G54D12*
G75*
G01X911254Y182587D02*
G03X919795Y182587I4271J15938D01*
G01*
G54D12*
G75*
G01X919795Y214463D02*
G03X911254Y214463I-4270J-15938D01*
G01*
G54D12*
G75*
G01X899587Y202795D02*
G03X899587Y194254I15938J-4270D01*
G01*
G54D12*
G75*
G01X931463Y194254D02*
G03X931463Y202795I-15938J4271D01*
G01*
G54D11*
X928605Y236614D02*
X933049Y227725D01*
G54D11*
X928605Y227725D02*
X933049Y236614D01*
G54D11*
X937937Y227725D02*
X937937Y236614D01*
G54D11*
X936160Y236614D02*
X939715Y236614D01*
G54D11*
X942827Y236614D02*
X946382Y236614D01*
X945938Y235503D01*
X945049Y233836D01*
X944160Y231614D01*
X943716Y229947D01*
X943716Y227725D01*
G54D12*
X870700Y299500D02*
X870700Y459500D01*
X887525Y459500D01*
G54D12*
X875525Y299500D02*
X875525Y291500D01*
X887525Y291500D01*
X887525Y299500D01*
G54D12*
X870700Y299500D02*
X947525Y299500D01*
X947525Y459500D01*
G54D12*
X887525Y459500D02*
X947525Y459500D01*
G54D12*
X886700Y299500D02*
X886700Y459500D01*
G54D12*
G75*
G01X911254Y313562D02*
G03X919796Y313562I4271J15938D01*
G01*
G54D12*
G75*
G01X919796Y345438D02*
G03X911254Y345438I-4271J-15938D01*
G01*
G54D12*
G75*
G01X899587Y333771D02*
G03X899587Y325229I15938J-4271D01*
G01*
G54D12*
G75*
G01X931463Y325229D02*
G03X931463Y333771I-15938J4271D01*
G01*
G54D12*
G75*
G01X911254Y363562D02*
G03X919795Y363562I4271J15938D01*
G01*
G54D12*
G75*
G01X919795Y395438D02*
G03X911254Y395438I-4270J-15938D01*
G01*
G54D12*
G75*
G01X899587Y383771D02*
G03X899587Y375230I15938J-4271D01*
G01*
G54D12*
G75*
G01X931463Y375230D02*
G03X931463Y383771I-15938J4270D01*
G01*
G54D12*
G75*
G01X911254Y413562D02*
G03X919795Y413562I4271J15938D01*
G01*
G54D12*
G75*
G01X919795Y445438D02*
G03X911254Y445438I-4270J-15938D01*
G01*
G54D12*
G75*
G01X899587Y433771D02*
G03X899587Y425230I15938J-4271D01*
G01*
G54D12*
G75*
G01X931462Y425230D02*
G03X931462Y433771I-15937J4270D01*
G01*
G54D11*
X927926Y473816D02*
X932371Y464927D01*
G54D11*
X927926Y464927D02*
X932371Y473816D01*
G54D11*
X937259Y464927D02*
X937259Y473816D01*
G54D11*
X935481Y473816D02*
X939037Y473816D01*
G54D11*
X944371Y469372D02*
X943482Y469372D01*
X942593Y469927D01*
X942148Y471039D01*
X942148Y472150D01*
X942593Y473261D01*
X943482Y473816D01*
X944371Y473816D01*
X945260Y473261D01*
X945704Y472150D01*
X945704Y471039D01*
X945260Y469927D01*
X944371Y469372D01*
X945260Y468816D01*
X945704Y467705D01*
X945704Y466594D01*
X945260Y465483D01*
X944371Y464927D01*
X943482Y464927D01*
X942593Y465483D01*
X942148Y466594D01*
X942148Y467705D01*
X942593Y468816D01*
X943482Y469372D01*
G54D10*
X658350Y358075D02*
X639300Y358075D01*
G54D10*
X661525Y361250D02*
X658350Y358075D01*
G54D10*
X661525Y361250D02*
X661525Y380300D01*
G54D10*
X636125Y361250D02*
X636125Y380300D01*
G54D10*
X639300Y383475D02*
X658350Y383475D01*
G54D10*
X661525Y380300D02*
X658350Y383475D01*
G54D10*
X639300Y383475D02*
X636125Y380300D01*
G54D10*
X636125Y361250D02*
X639300Y358075D01*
G54D10*
X632950Y358075D02*
X613900Y358075D01*
G54D10*
X636125Y361250D02*
X632950Y358075D01*
G54D10*
X636125Y361250D02*
X636125Y380300D01*
G54D10*
X610725Y361250D02*
X610725Y380300D01*
G54D10*
X613900Y383475D02*
X632950Y383475D01*
G54D10*
X636125Y380300D02*
X632950Y383475D01*
G54D10*
X613900Y383475D02*
X610725Y380300D01*
G54D10*
X610725Y361250D02*
X613900Y358075D01*
G54D10*
X658350Y383475D02*
X639300Y383475D01*
G54D10*
X661525Y386650D02*
X658350Y383475D01*
G54D10*
X661525Y386650D02*
X661525Y405700D01*
G54D10*
X636125Y386650D02*
X636125Y405700D01*
G54D10*
X639300Y408875D02*
X658350Y408875D01*
G54D10*
X661525Y405700D02*
X658350Y408875D01*
G54D10*
X639300Y408875D02*
X636125Y405700D01*
G54D10*
X636125Y386650D02*
X639300Y383475D01*
G54D10*
X632950Y383475D02*
X613900Y383475D01*
G54D10*
X636125Y386650D02*
X632950Y383475D01*
G54D10*
X636125Y386650D02*
X636125Y405700D01*
G54D10*
X610725Y386650D02*
X610725Y405700D01*
G54D10*
X613900Y408875D02*
X632950Y408875D01*
G54D10*
X636125Y405700D02*
X632950Y408875D01*
G54D10*
X613900Y408875D02*
X610725Y405700D01*
G54D10*
X610725Y386650D02*
X613900Y383475D01*
G54D10*
X658350Y408875D02*
X639300Y408875D01*
G54D10*
X661525Y412050D02*
X658350Y408875D01*
G54D10*
X661525Y412050D02*
X661525Y431100D01*
G54D10*
X636125Y412050D02*
X636125Y431100D01*
G54D10*
X639300Y434275D02*
X658350Y434275D01*
G54D10*
X661525Y431100D02*
X658350Y434275D01*
G54D10*
X639300Y434275D02*
X636125Y431100D01*
G54D10*
X636125Y412050D02*
X639300Y408875D01*
G54D10*
X632950Y408875D02*
X613900Y408875D01*
G54D10*
X636125Y412050D02*
X632950Y408875D01*
G54D10*
X636125Y412050D02*
X636125Y431100D01*
G54D10*
X610725Y412050D02*
X610725Y431100D01*
G54D10*
X613900Y434275D02*
X632950Y434275D01*
G54D10*
X636125Y431100D02*
X632950Y434275D01*
G54D10*
X613900Y434275D02*
X610725Y431100D01*
G54D10*
X610725Y412050D02*
X613900Y408875D01*
G54D11*
X665433Y365696D02*
X665433Y374585D01*
X667655Y369030D01*
X669877Y374585D01*
X669877Y365696D01*
G54D11*
X672988Y365696D02*
X676543Y365696D01*
G54D11*
X674766Y365696D02*
X674766Y374585D01*
G54D11*
X672988Y374585D02*
X676543Y374585D01*
G54D11*
X665076Y396256D02*
X665521Y395145D01*
X666410Y394590D01*
X667299Y394590D01*
X668188Y395145D01*
X668632Y396256D01*
X668632Y397367D01*
X668188Y398478D01*
X667299Y399034D01*
X666410Y399034D01*
X665521Y399590D01*
X665076Y400701D01*
X665076Y401812D01*
X665521Y402923D01*
X666410Y403478D01*
X667299Y403478D01*
X668188Y402923D01*
X668632Y401812D01*
G54D11*
X675299Y396256D02*
X674854Y395145D01*
X673966Y394590D01*
X673077Y394590D01*
X672188Y395145D01*
X671743Y396256D01*
X671743Y401812D01*
X672188Y402923D01*
X673077Y403478D01*
X673966Y403478D01*
X674854Y402923D01*
X675299Y401812D01*
G54D11*
X678410Y394590D02*
X678410Y403478D01*
G54D11*
X678410Y397367D02*
X681966Y403478D01*
G54D11*
X679744Y399034D02*
X681966Y394590D01*
G54D11*
X667233Y421258D02*
X668566Y420147D01*
X669010Y419036D01*
X669010Y416814D01*
G54D11*
X665455Y416814D02*
X665455Y425703D01*
X667677Y425703D01*
X668566Y425147D01*
X669010Y424036D01*
X669010Y422925D01*
X668566Y421814D01*
X667677Y421258D01*
X665455Y421258D01*
G54D11*
X672122Y418481D02*
X672566Y417370D01*
X673455Y416814D01*
X674344Y416814D01*
X675233Y417370D01*
X675677Y418481D01*
X675677Y419592D01*
X675233Y420703D01*
X674344Y421258D01*
X673455Y421258D01*
X672566Y421814D01*
X672122Y422925D01*
X672122Y424036D01*
X672566Y425147D01*
X673455Y425703D01*
X674344Y425703D01*
X675233Y425147D01*
X675677Y424036D01*
G54D11*
X680567Y416814D02*
X680567Y425703D01*
G54D11*
X678789Y425703D02*
X682344Y425703D01*
G54D11*
X589184Y374585D02*
X591406Y365696D01*
X593628Y374585D01*
G54D11*
X598517Y365696D02*
X598517Y374585D01*
G54D11*
X596739Y374585D02*
X600294Y374585D01*
G54D11*
X605184Y370141D02*
X606961Y370141D01*
X606961Y367363D01*
X606517Y366252D01*
X605628Y365696D01*
X604739Y365696D01*
X603850Y366252D01*
X603406Y367363D01*
X603406Y372919D01*
X603850Y374030D01*
X604739Y374585D01*
X605628Y374585D01*
X606517Y374030D01*
X606961Y372919D01*
G54D11*
X595657Y394588D02*
X595657Y403477D01*
X597879Y397922D01*
X600101Y403477D01*
X600101Y394588D01*
G54D11*
X606767Y401811D02*
X606767Y396255D01*
X606323Y395144D01*
X605434Y394588D01*
X604545Y394588D01*
X603656Y395144D01*
X603212Y396255D01*
X603212Y401811D01*
X603656Y402922D01*
X604545Y403477D01*
X605434Y403477D01*
X606323Y402922D01*
X606767Y401811D01*
G54D11*
X591866Y421259D02*
X593643Y421259D01*
X593643Y418481D01*
X593199Y417370D01*
X592310Y416814D01*
X591421Y416814D01*
X590532Y417370D01*
X590088Y418481D01*
X590088Y424037D01*
X590532Y425148D01*
X591421Y425703D01*
X592310Y425703D01*
X593199Y425148D01*
X593643Y424037D01*
G54D11*
X596755Y416814D02*
X596755Y425703D01*
X600310Y416814D01*
X600310Y425703D01*
G54D11*
X603422Y416814D02*
X603422Y425703D01*
X605644Y425703D01*
X606533Y425148D01*
X606977Y424037D01*
X606977Y418481D01*
X606533Y417370D01*
X605644Y416814D01*
X603422Y416814D01*
G54D11*
X627110Y446975D02*
X631554Y438086D01*
G54D11*
X627110Y438086D02*
X631554Y446975D01*
G54D11*
X636442Y438086D02*
X636442Y446975D01*
G54D11*
X634665Y446975D02*
X638220Y446975D01*
G54D11*
X644887Y445308D02*
X644443Y446419D01*
X643554Y446975D01*
X642665Y446975D01*
X641776Y446419D01*
X641332Y445308D01*
X641332Y442531D01*
X641332Y441975D01*
X642665Y443086D01*
X643554Y443086D01*
X644443Y442531D01*
X644887Y441419D01*
X644887Y439753D01*
X644443Y438642D01*
X643554Y438086D01*
X642665Y438086D01*
X641776Y438642D01*
X641332Y439753D01*
X641332Y442531D01*
G54D13*
G75*
G01X820275Y224725D02*
G03X820275Y224725I-57150J0D01*
G01*
G54D13*
X721850Y246950D02*
X728200Y246950D01*
G54D13*
X725025Y250125D02*
X725025Y243775D01*
G54D13*
X756775Y231075D02*
X756775Y218375D01*
X763125Y218375D01*
X763125Y231075D01*
X756775Y231075D01*
G54D13*
X763125Y231075D02*
X769475Y237425D01*
X769475Y212025D01*
X763125Y218375D01*
G54D11*
X732514Y286750D02*
X732514Y295639D01*
X734736Y295639D01*
X735625Y295083D01*
X736069Y293972D01*
X736069Y292861D01*
X735625Y291750D01*
X734736Y291194D01*
X735625Y290639D01*
X736069Y289528D01*
X736069Y288417D01*
X735625Y287306D01*
X734736Y286750D01*
X732514Y286750D01*
G54D11*
X732514Y291194D02*
X734736Y291194D01*
G54D11*
X739180Y286750D02*
X741403Y295639D01*
X743625Y286750D01*
G54D11*
X740069Y290083D02*
X742736Y290083D01*
G54D11*
X746736Y292306D02*
X748958Y295639D01*
X748958Y286750D01*
G54D12*
X186500Y152100D02*
X243500Y152100D01*
X243500Y227100D01*
X186500Y227100D01*
X186500Y207100D01*
G54D12*
X186500Y152100D02*
X186500Y172100D01*
G54D12*
X188500Y152100D02*
X188500Y172100D01*
G54D12*
X188500Y207100D02*
X188500Y227100D01*
G54D11*
X186357Y240679D02*
X190801Y231790D01*
G54D11*
X186357Y231790D02*
X190801Y240679D01*
G54D11*
X195690Y231790D02*
X195690Y240679D01*
G54D11*
X193912Y240679D02*
X197468Y240679D01*
G54D11*
X204134Y231790D02*
X200579Y231790D01*
X200579Y232346D01*
X201023Y233457D01*
X203690Y236790D01*
X204134Y237901D01*
X204134Y239012D01*
X203690Y240123D01*
X202801Y240679D01*
X201912Y240679D01*
X201023Y240123D01*
X200579Y239012D01*
G54D10*
G75*
G01X55002Y511048D02*
G03X99798Y511048I22398J-22398D01*
G01*
G54D10*
G75*
G01X255002Y511048D02*
G03X299798Y511048I22398J-22398D01*
G01*
G54D10*
G75*
G01X695002Y511048D02*
G03X739798Y511048I22398J-22398D01*
G01*
G54D10*
G75*
G01X99798Y66252D02*
G03X55002Y66252I-22398J22398D01*
G01*
G54D10*
G75*
G01X299798Y66252D02*
G03X255002Y66252I-22398J22398D01*
G01*
G54D10*
G75*
G01X739798Y66252D02*
G03X695002Y66252I-22398J22398D01*
G01*
G54D12*
X159875Y234800D02*
X159875Y219800D01*
G54D12*
X159875Y234800D02*
X19875Y234800D01*
X19875Y144800D01*
X97375Y144800D01*
G54D12*
X159875Y160837D02*
X159875Y144800D01*
G54D12*
X159875Y144800D02*
X157375Y144800D01*
G36*
X29875Y234800D02*
X19875Y234800D01*
X19875Y144800D01*
X29875Y144800D01*
X29875Y234800D01*
G37*
G54D12*
X29875Y234800D02*
X19875Y234800D01*
X19875Y144800D01*
X29875Y144800D01*
X29875Y234800D01*
G54D11*
X52782Y247620D02*
X57227Y238731D01*
G54D11*
X52782Y238731D02*
X57227Y247620D01*
G54D11*
X62115Y238731D02*
X62115Y247620D01*
G54D11*
X60337Y247620D02*
X63893Y247620D01*
G54D11*
X67004Y244287D02*
X69227Y247620D01*
X69227Y238731D01*
G54D12*
G75*
G01X318625Y294575D02*
G03X318625Y294575I-50800J0D01*
G01*
G54D14*
G75*
G01X242325Y250408D02*
G03X293325Y250408I25500J44167D01*
G01*
G54D12*
X242425Y313625D02*
X242425Y326325D01*
G54D12*
X236075Y319975D02*
X248775Y319975D01*
G54D12*
X293225Y313625D02*
X293225Y326325D01*
G54D12*
X286875Y319975D02*
X299575Y319975D01*
G54D11*
X265948Y352302D02*
X265503Y351191D01*
X264614Y350636D01*
X263725Y350636D01*
X262836Y351191D01*
X262392Y352302D01*
X262392Y357858D01*
X262836Y358969D01*
X263725Y359524D01*
X264614Y359524D01*
X265503Y358969D01*
X265948Y357858D01*
G54D11*
X269059Y357858D02*
X269504Y358969D01*
X270392Y359524D01*
X271281Y359524D01*
X272170Y358969D01*
X272614Y357858D01*
X272614Y356747D01*
X272170Y355636D01*
X271281Y355080D01*
X272170Y354524D01*
X272614Y353413D01*
X272614Y352302D01*
X272170Y351191D01*
X271281Y350636D01*
X270392Y350636D01*
X269504Y351191D01*
X269059Y352302D01*
G54D11*
X255538Y227596D02*
X255538Y236485D01*
X252872Y230930D01*
X252872Y229819D01*
X256427Y229819D01*
G54D11*
X259538Y236485D02*
X263094Y236485D01*
X262650Y235374D01*
X261761Y233708D01*
X260872Y231485D01*
X260427Y229819D01*
X260427Y227596D01*
G54D11*
X269761Y234819D02*
X269761Y229263D01*
X269317Y228152D01*
X268428Y227596D01*
X267539Y227596D01*
X266650Y228152D01*
X266206Y229263D01*
X266206Y234819D01*
X266650Y235930D01*
X267539Y236485D01*
X268428Y236485D01*
X269317Y235930D01*
X269761Y234819D01*
G54D11*
X275539Y232596D02*
X275539Y227596D01*
G54D11*
X275539Y228708D02*
X275095Y227819D01*
X274206Y227596D01*
X273317Y227819D01*
X272872Y228708D01*
X272872Y232596D01*
G54D11*
X278650Y227596D02*
X278650Y236485D01*
X281762Y236485D01*
G54D11*
X278650Y232041D02*
X281762Y232041D01*
G54D13*
G75*
G01X280525Y413638D02*
G03X280525Y413638I-25400J0D01*
G01*
G54D15*
G75*
G01X267875Y435721D02*
G03X242375Y435721I-12750J-22084D01*
G01*
G54D13*
X240838Y405700D02*
X240838Y399350D01*
G54D13*
X244012Y402525D02*
X237662Y402525D01*
G54D13*
X269412Y405700D02*
X269412Y399350D01*
G54D13*
X272588Y402525D02*
X266238Y402525D01*
G54D11*
X253574Y444354D02*
X253130Y443243D01*
X252241Y442688D01*
X251352Y442688D01*
X250464Y443243D01*
X250019Y444354D01*
X250019Y449910D01*
X250464Y451021D01*
X251352Y451576D01*
X252241Y451576D01*
X253130Y451021D01*
X253574Y449910D01*
G54D11*
X258908Y447132D02*
X258019Y447132D01*
X257130Y447688D01*
X256686Y448799D01*
X256686Y449910D01*
X257130Y451021D01*
X258019Y451576D01*
X258908Y451576D01*
X259797Y451021D01*
X260242Y449910D01*
X260242Y448799D01*
X259797Y447688D01*
X258908Y447132D01*
X259797Y446576D01*
X260242Y445465D01*
X260242Y444354D01*
X259797Y443243D01*
X258908Y442688D01*
X258019Y442688D01*
X257130Y443243D01*
X256686Y444354D01*
X256686Y445465D01*
X257130Y446576D01*
X258019Y447132D01*
G54D11*
X242240Y381454D02*
X244462Y384787D01*
X244462Y375898D01*
G54D11*
X251128Y383121D02*
X251128Y377565D01*
X250684Y376454D01*
X249795Y375898D01*
X248906Y375898D01*
X248017Y376454D01*
X247572Y377565D01*
X247572Y383121D01*
X248017Y384232D01*
X248906Y384787D01*
X249795Y384787D01*
X250684Y384232D01*
X251128Y383121D01*
G54D11*
X257795Y383121D02*
X257795Y377565D01*
X257351Y376454D01*
X256462Y375898D01*
X255573Y375898D01*
X254684Y376454D01*
X254240Y377565D01*
X254240Y383121D01*
X254684Y384232D01*
X255573Y384787D01*
X256462Y384787D01*
X257351Y384232D01*
X257795Y383121D01*
G54D11*
X263573Y380898D02*
X263573Y375898D01*
G54D11*
X263573Y377010D02*
X263129Y376121D01*
X262240Y375898D01*
X261351Y376121D01*
X260906Y377010D01*
X260906Y380898D01*
G54D11*
X266684Y375898D02*
X266684Y384787D01*
X269796Y384787D01*
G54D11*
X266684Y380343D02*
X269796Y380343D01*
G54D12*
X667225Y271150D02*
X667225Y254500D01*
X670225Y254500D01*
X670225Y271150D01*
G54D12*
X670225Y148925D02*
X670225Y167750D01*
X667225Y167750D01*
X667225Y148925D01*
G54D12*
X667225Y236150D02*
X667225Y206150D01*
G54D12*
X670225Y236150D02*
X670225Y206150D01*
G54D12*
X670225Y254500D02*
X670225Y271150D01*
X613225Y271150D01*
X613225Y148925D01*
X670225Y148925D01*
X670225Y167750D01*
G54D12*
X670225Y236150D02*
X667225Y236150D01*
X667225Y187100D01*
X670225Y187100D01*
X670225Y236150D01*
G54D11*
X612764Y294133D02*
X617208Y285244D01*
G54D11*
X612764Y285244D02*
X617208Y294133D01*
G54D11*
X622096Y285244D02*
X622096Y294133D01*
G54D11*
X620318Y294133D02*
X623874Y294133D01*
G54D11*
X626986Y292467D02*
X627430Y293578D01*
X628319Y294133D01*
X629208Y294133D01*
X630097Y293578D01*
X630541Y292467D01*
X630541Y291356D01*
X630097Y290244D01*
X629208Y289689D01*
X630097Y289133D01*
X630541Y288022D01*
X630541Y286911D01*
X630097Y285800D01*
X629208Y285244D01*
X628319Y285244D01*
X627430Y285800D01*
X626986Y286911D01*
G54D12*
X338325Y121150D02*
X338325Y137800D01*
X335325Y137800D01*
X335325Y121150D01*
G54D12*
X335325Y243375D02*
X335325Y224550D01*
X338325Y224550D01*
X338325Y243375D01*
G54D12*
X338325Y156150D02*
X338325Y186150D01*
G54D12*
X335325Y156150D02*
X335325Y186150D01*
G54D12*
X335325Y137800D02*
X335325Y121150D01*
X392325Y121150D01*
X392325Y243375D01*
X335325Y243375D01*
X335325Y224550D01*
G54D12*
X335325Y156150D02*
X338325Y156150D01*
X338325Y205200D01*
X335325Y205200D01*
X335325Y156150D01*
G54D11*
X335428Y256795D02*
X339872Y247906D01*
G54D11*
X335428Y247906D02*
X339872Y256795D01*
G54D11*
X344761Y247906D02*
X344761Y256795D01*
G54D11*
X342983Y256795D02*
X346538Y256795D01*
G54D11*
X352317Y247906D02*
X352317Y256795D01*
X349650Y251239D01*
X349650Y250128D01*
X353206Y250128D01*
G54D13*
X556775Y193625D02*
X556775Y253925D01*
G54D13*
X601175Y193725D02*
X601175Y254025D01*
G54D13*
G75*
G01X556775Y193825D02*
G03X601175Y193825I22200J0D01*
G01*
G54D13*
G75*
G01X601175Y253925D02*
G03X556775Y253925I-22200J0D01*
G01*
G54D11*
X543964Y215644D02*
X543964Y219199D01*
X552853Y215644D01*
X552853Y219199D01*
G54D11*
X551186Y224088D02*
X552853Y226310D01*
G54D11*
X545630Y225866D02*
X551186Y225866D01*
X552297Y225422D01*
X552853Y224533D01*
X552853Y223644D01*
X552297Y222755D01*
X551186Y222310D01*
X545630Y222310D01*
X544519Y222755D01*
X543964Y223644D01*
X543964Y224533D01*
X544519Y225422D01*
X545630Y225866D01*
G54D11*
X547297Y229422D02*
X543964Y231644D01*
X552853Y231644D01*
G54D13*
X302750Y434275D02*
X302750Y364425D01*
G54D13*
X340850Y434275D02*
X544050Y434275D01*
G54D13*
X582150Y364425D02*
X569450Y364425D01*
G54D13*
X315450Y364425D02*
X302750Y364425D01*
G54D13*
X315450Y364425D02*
X315450Y373950D01*
X569450Y373950D01*
X569450Y364425D01*
G54D13*
X321800Y421575D02*
X321800Y396175D01*
G54D13*
X321800Y434275D02*
X324975Y427925D01*
X321800Y421575D01*
G54D13*
X340850Y434275D02*
X340850Y396175D01*
G54D13*
X321800Y434275D02*
X302750Y434275D01*
G54D13*
X321800Y396175D02*
X340850Y396175D01*
G54D13*
X324975Y434275D02*
X328150Y434275D01*
G54D13*
X331325Y434275D02*
X334500Y434275D01*
G54D13*
X337675Y434275D02*
X340850Y434275D01*
G54D13*
X563100Y421575D02*
X563100Y396175D01*
G54D13*
X563100Y434275D02*
X559925Y427925D01*
X563100Y421575D01*
G54D13*
X544050Y434275D02*
X544050Y396175D01*
G54D13*
X563100Y396175D02*
X544050Y396175D01*
G54D13*
X582150Y364425D02*
X582150Y434275D01*
G54D13*
X563100Y434275D02*
X582150Y434275D01*
G54D13*
X559925Y434275D02*
X556750Y434275D01*
G54D13*
X553575Y434275D02*
X550400Y434275D01*
G54D13*
X547225Y434275D02*
X544050Y434275D01*
G54D13*
X309100Y434275D02*
X309100Y440625D01*
G54D13*
X309100Y443800D02*
X309100Y450150D01*
G54D13*
X309100Y453325D02*
X309100Y456500D01*
X302750Y456500D01*
X302750Y462850D01*
X305925Y462850D01*
G54D13*
X575800Y434275D02*
X575800Y440625D01*
G54D13*
X575800Y443800D02*
X575800Y450150D01*
G54D13*
X575800Y453325D02*
X575800Y456500D01*
X582150Y456500D01*
X582150Y462850D01*
X575800Y462850D01*
G54D13*
X309100Y462850D02*
X315450Y462850D01*
G54D13*
X318625Y462850D02*
X324975Y462850D01*
G54D13*
X328150Y462850D02*
X334500Y462850D01*
G54D13*
X337675Y462850D02*
X344025Y462850D01*
G54D13*
X347200Y462850D02*
X353550Y462850D01*
G54D13*
X356725Y462850D02*
X363075Y462850D01*
G54D13*
X366250Y462850D02*
X372600Y462850D01*
G54D13*
X375775Y462850D02*
X382125Y462850D01*
G54D13*
X385300Y462850D02*
X391650Y462850D01*
G54D13*
X394825Y462850D02*
X401175Y462850D01*
G54D13*
X404350Y462850D02*
X410700Y462850D01*
G54D13*
X413875Y462850D02*
X420225Y462850D01*
G54D13*
X423400Y462850D02*
X429750Y462850D01*
G54D13*
X432925Y462850D02*
X439275Y462850D01*
G54D13*
X442450Y462850D02*
X448800Y462850D01*
G54D13*
X451975Y462850D02*
X458325Y462850D01*
G54D13*
X461500Y462850D02*
X467850Y462850D01*
G54D13*
X471025Y462850D02*
X477375Y462850D01*
G54D13*
X480550Y462850D02*
X486900Y462850D01*
G54D13*
X490075Y462850D02*
X496425Y462850D01*
G54D13*
X499600Y462850D02*
X505950Y462850D01*
G54D13*
X509125Y462850D02*
X515475Y462850D01*
G54D13*
X518650Y462850D02*
X525000Y462850D01*
G54D13*
X528175Y462850D02*
X534525Y462850D01*
G54D13*
X537700Y462850D02*
X544050Y462850D01*
G54D13*
X547225Y462850D02*
X553575Y462850D01*
G54D13*
X556750Y462850D02*
X563100Y462850D01*
G54D13*
X566275Y462850D02*
X572625Y462850D01*
G54D11*
X314450Y476864D02*
X318894Y467975D01*
G54D11*
X314450Y467975D02*
X318894Y476864D01*
G54D11*
X323783Y467975D02*
X323783Y476864D01*
G54D11*
X322005Y476864D02*
X325561Y476864D01*
G54D11*
X332228Y476864D02*
X328672Y476864D01*
X328672Y472975D01*
X329116Y472975D01*
X330006Y473531D01*
X330894Y473531D01*
X331783Y472975D01*
X332228Y471864D01*
X332228Y469642D01*
X331783Y468531D01*
X330894Y467975D01*
X330006Y467975D01*
X329116Y468531D01*
X328672Y469642D01*
G54D10*
X588500Y505712D02*
X683750Y505712D01*
X683750Y461262D01*
X588500Y461262D01*
X588500Y505712D01*
G54D10*
G75*
G01X683750Y472375D02*
G03X672638Y483487I-11112J0D01*
G01*
G54D10*
X661525Y473962D02*
X683750Y473962D01*
G54D10*
X588500Y505712D02*
X588500Y512062D01*
X594850Y512062D01*
X594850Y505712D01*
G54D10*
X677400Y505712D02*
X677400Y512062D01*
X683750Y512062D01*
X683750Y505712D01*
G54D10*
G75*
G01X661904Y475251D02*
G03X683750Y472375I10734J-2876D01*
G01*
G54D10*
X661525Y470788D02*
X683750Y470788D01*
G54D16*
X563674Y500119D02*
X565407Y498674D01*
X565985Y497230D01*
X565985Y494341D01*
G54D16*
X561363Y494341D02*
X561363Y505897D01*
X564252Y505897D01*
X565407Y505174D01*
X565985Y503730D01*
X565985Y502285D01*
X565407Y500841D01*
X564252Y500119D01*
X561363Y500119D01*
G54D16*
X570029Y501563D02*
X572918Y505897D01*
X572918Y494341D01*
G54D16*
X576962Y501563D02*
X579851Y505897D01*
X579851Y494341D01*
G54D16*
X561070Y486083D02*
X563959Y490417D01*
X563959Y478861D01*
G54D16*
X572625Y488250D02*
X572625Y481028D01*
X572047Y479583D01*
X570892Y478861D01*
X569736Y478861D01*
X568580Y479583D01*
X568003Y481028D01*
X568003Y488250D01*
X568580Y489694D01*
X569736Y490417D01*
X570892Y490417D01*
X572047Y489694D01*
X572625Y488250D01*
G54D16*
X576669Y478861D02*
X576669Y490417D01*
G54D16*
X578402Y483194D02*
X580135Y478861D01*
G54D16*
X576669Y481750D02*
X580135Y485361D01*
G54D17*
X852025Y323150D02*
X852025Y333817D01*
X856292Y323150D01*
X856292Y333817D01*
G54D17*
X864292Y325150D02*
X863758Y323817D01*
X862692Y323150D01*
X861625Y323150D01*
X860558Y323817D01*
X860025Y325150D01*
X860025Y331817D01*
X860558Y333150D01*
X861625Y333817D01*
X862692Y333817D01*
X863758Y333150D01*
X864292Y331817D01*
G54D17*
X852025Y424750D02*
X852025Y435417D01*
X856292Y424750D01*
X856292Y435417D01*
G54D17*
X864292Y433417D02*
X864292Y426750D01*
X863758Y425417D01*
X862692Y424750D01*
X861625Y424750D01*
X860558Y425417D01*
X860025Y426750D01*
X860025Y433417D01*
X860558Y434750D01*
X861625Y435417D01*
X862692Y435417D01*
X863758Y434750D01*
X864292Y433417D01*
G54D17*
X849942Y375950D02*
X849408Y374617D01*
X848342Y373950D01*
X847275Y373950D01*
X846208Y374617D01*
X845675Y375950D01*
X845675Y382617D01*
X846208Y383950D01*
X847275Y384617D01*
X848342Y384617D01*
X849408Y383950D01*
X849942Y382617D01*
G54D17*
X857942Y382617D02*
X857942Y375950D01*
X857408Y374617D01*
X856342Y373950D01*
X855275Y373950D01*
X854208Y374617D01*
X853675Y375950D01*
X853675Y382617D01*
X854208Y383950D01*
X855275Y384617D01*
X856342Y384617D01*
X857408Y383950D01*
X857942Y382617D01*
G54D17*
X861675Y373950D02*
X861675Y384617D01*
X864342Y377950D01*
X867008Y384617D01*
X867008Y373950D01*
G54D17*
X836150Y146842D02*
X840417Y146842D01*
G54D17*
X838283Y149508D02*
X838283Y144175D01*
G54D17*
X844150Y148842D02*
X846817Y152842D01*
X846817Y142175D01*
G54D17*
X854817Y142175D02*
X850550Y142175D01*
X850550Y142842D01*
X851083Y144175D01*
X854283Y148175D01*
X854817Y149508D01*
X854817Y150842D01*
X854283Y152175D01*
X853217Y152842D01*
X852150Y152842D01*
X851083Y152175D01*
X850550Y150842D01*
G54D17*
X858550Y142175D02*
X858550Y152842D01*
X861217Y152842D01*
X862283Y152175D01*
X862817Y150842D01*
X862817Y149508D01*
X862283Y148175D01*
X861217Y147508D01*
X862283Y146842D01*
X862817Y145508D01*
X862817Y144175D01*
X862283Y142842D01*
X861217Y142175D01*
X858550Y142175D01*
G54D17*
X858550Y147508D02*
X861217Y147508D01*
G54D17*
X844633Y198308D02*
X846767Y198308D01*
X846767Y194975D01*
X846233Y193642D01*
X845167Y192975D01*
X844100Y192975D01*
X843033Y193642D01*
X842500Y194975D01*
X842500Y201642D01*
X843033Y202975D01*
X844100Y203642D01*
X845167Y203642D01*
X846233Y202975D01*
X846767Y201642D01*
G54D17*
X850500Y192975D02*
X850500Y203642D01*
X854767Y192975D01*
X854767Y203642D01*
G54D17*
X858500Y192975D02*
X858500Y203642D01*
X861167Y203642D01*
X862233Y202975D01*
X862767Y201642D01*
X862767Y194975D01*
X862233Y193642D01*
X861167Y192975D01*
X858500Y192975D01*
G54D18*
X341332Y312316D02*
X343332Y308983D01*
X347332Y307316D01*
X351332Y307316D01*
X355332Y308983D01*
X357332Y312316D01*
X357332Y315650D01*
X355332Y318983D01*
X351332Y320650D01*
X347332Y320650D01*
X343332Y322316D01*
X341332Y325650D01*
X341332Y328983D01*
X343332Y332316D01*
X347332Y333983D01*
X351332Y333983D01*
X355332Y332316D01*
X357332Y328983D01*
G54D18*
X366665Y307316D02*
X366665Y322316D01*
G54D18*
X366665Y327316D02*
X366665Y327316D01*
G54D18*
X375998Y307316D02*
X375998Y322316D01*
G54D18*
X375998Y319650D02*
X379998Y322316D01*
X383998Y321316D01*
X385998Y318983D01*
X385998Y307316D01*
G54D18*
X385998Y319650D02*
X389998Y322316D01*
X393998Y321316D01*
X395998Y318983D01*
X395998Y307316D01*
G54D18*
X405331Y322316D02*
X405331Y300650D01*
G54D18*
X405331Y312316D02*
X407331Y307983D01*
X411331Y307316D01*
X415331Y307983D01*
X417331Y311316D01*
X417331Y317983D01*
X415331Y321316D01*
X411331Y322316D01*
X407331Y321316D01*
X405331Y317316D01*
G54D18*
X426664Y307316D02*
X426664Y333983D01*
G54D18*
X447997Y308983D02*
X444797Y307316D01*
X440797Y307316D01*
X436797Y308983D01*
X435997Y312316D01*
X435997Y317983D01*
X437997Y321316D01*
X441997Y322316D01*
X445997Y321316D01*
X447997Y318983D01*
X447997Y315650D01*
X435997Y315650D01*
G54D18*
X465330Y307316D02*
X465330Y333983D01*
G54D18*
X457330Y333983D02*
X473330Y333983D01*
G54D18*
X482663Y307316D02*
X482663Y322316D01*
G54D18*
X482663Y327316D02*
X482663Y327316D01*
G54D18*
X491996Y307316D02*
X491996Y322316D01*
G54D18*
X491996Y319650D02*
X495996Y322316D01*
X499996Y321316D01*
X501996Y318983D01*
X501996Y307316D01*
G54D18*
X501996Y319650D02*
X505996Y322316D01*
X509996Y321316D01*
X511996Y318983D01*
X511996Y307316D01*
G54D18*
X533329Y308983D02*
X530129Y307316D01*
X526129Y307316D01*
X522129Y308983D01*
X521329Y312316D01*
X521329Y317983D01*
X523329Y321316D01*
X527329Y322316D01*
X531329Y321316D01*
X533329Y318983D01*
X533329Y315650D01*
X521329Y315650D01*
G54D18*
X542662Y307316D02*
X542662Y322316D01*
G54D18*
X542662Y318983D02*
X546662Y322316D01*
X550662Y322316D01*
G54D19*
X483725Y275525D02*
X483725Y283025D01*
G54D19*
X483725Y281358D02*
X485725Y283025D01*
X487725Y283025D01*
G54D19*
X498392Y276358D02*
X496792Y275525D01*
X494792Y275525D01*
X492792Y276358D01*
X492392Y278025D01*
X492392Y280858D01*
X493392Y282525D01*
X495392Y283025D01*
X497392Y282525D01*
X498392Y281358D01*
X498392Y279692D01*
X492392Y279692D01*
G54D19*
X503059Y283025D02*
X507059Y275525D01*
X511059Y283025D01*
G54D19*
X516526Y275525D02*
X515726Y275525D01*
X515726Y276192D01*
X516526Y276192D01*
X516526Y275525D01*
X515726Y275525D01*
G54D19*
X521193Y275525D02*
X521993Y275525D01*
X521993Y276192D01*
X521193Y276192D01*
X521193Y275525D01*
G54D19*
X521993Y285525D02*
X521193Y285525D01*
X521193Y286192D01*
X521993Y286192D01*
X521993Y285525D01*
G54D19*
X534660Y275525D02*
X526660Y275525D01*
X526660Y276358D01*
X527660Y278025D01*
X533660Y283025D01*
X534660Y284692D01*
X534660Y286358D01*
X533660Y288025D01*
X531660Y288858D01*
X529660Y288858D01*
X527660Y288025D01*
X526660Y286358D01*
G54D19*
X540127Y275525D02*
X539327Y275525D01*
X539327Y276192D01*
X540127Y276192D01*
X540127Y275525D01*
X539327Y275525D01*
G54D19*
X544794Y283858D02*
X549794Y288858D01*
X549794Y275525D01*
M02*
